<svg width="46" height="43" viewBox="0 0 46 43" fill="none" xmlns="http://www.w3.org/2000/svg">
<path d="M38.3976 12.0156V24.9481C41.7936 24.9481 44.5528 22.0445 44.5528 18.4914C44.5528 14.9383 41.7936 12.0347 38.3976 12.0347V12.0156Z" stroke="#333333" stroke-width="1.5" stroke-linejoin="bevel"/>
<path d="M15.8221 12.5887V24.3941L38.3976 35.6837V24.9481V12.0156V1.27991L15.8221 12.5887Z" stroke="#333333" stroke-width="1.5" stroke-linejoin="bevel"/>
<path d="M15.8221 24.375H7.40939C4.10989 24.375 1.44714 21.7388 1.44714 18.4723C1.44714 15.2057 4.10989 12.5696 7.40939 12.5696L15.8221 12.5696L15.8221 24.375Z" stroke="#333333" stroke-width="1.5" stroke-linejoin="bevel"/>
<path d="M12.6384 41.5482C10.8826 41.5482 9.4547 40.1346 9.4547 38.3963L9.4547 24.375H15.8029L15.8029 38.3963C15.8029 40.1346 14.375 41.5482 12.6191 41.5482H12.6384Z" stroke="#333333" stroke-width="1.5" stroke-linejoin="bevel"/>
</svg>
