<?xml version="1.0" encoding="utf-8"?>
<!-- Generator: Adobe Illustrator 26.4.1, SVG Export Plug-In . SVG Version: 6.00 Build 0)  -->
<svg version="1.1" id="레이어_1" xmlns="http://www.w3.org/2000/svg" xmlns:xlink="http://www.w3.org/1999/xlink" x="0px"
	 y="0px" viewBox="0 0 521 92.06" style="enable-background:new 0 0 521 92.06;" xml:space="preserve">
<style type="text/css">
	.st0{fill:#543F96;}
	.st1{fill:url(#SVGID_1_);}
	.st2{fill:url(#SVGID_00000070829525921850059390000009056929800764596628_);}
	.st3{fill:url(#SVGID_00000166647165588871448620000005989280284085480834_);}
	.st4{fill:url(#SVGID_00000002361937739086045880000012237458272515166608_);}
</style>
<g>
	<path class="st0" d="M124.67,41.31h-21.4V13.37h8.3v6.71h4.8v-6.71h8.3v9.44h3.82v-9.77H137v33.51h-8.51V31.43h-3.82V41.31z
		 M149.39,51.13v8.3h-43.45V44.48h9.39v6.66H149.39z M116.37,34v-6.77h-4.8V34H116.37z M148.84,47.37h-8.62V12.82h8.62V47.37z"/>
	<path class="st0" d="M175.15,35.47l13.26,15.99l-7.15,5.68l-9.33-11.9c-3.77,7.64-9.72,11.95-16.7,12.01v-9.06
		c6.71-0.66,11.03-9.12,11.63-21.29h-10.59v-8.51h10.53v-5.73h9.44v5.73h9.93v8.51h-10.04C175.97,29.96,175.65,32.85,175.15,35.47z
		 M199.99,12.82v46.61h-9.22V39.62h-7.81v-8.73h7.81V12.82H199.99z"/>
	<path class="st0" d="M254.08,52.01h-18.83v8.51h-9.5v-8.51h-18.83v-8.3h47.16V52.01z M251.95,40.82h-42.3V13.37h41.75v7.53h-32.64
		v2.67h31.88v7.04h-31.88v2.67h33.19V40.82z"/>
	<path class="st0" d="M279.25,34.05l13.32,17.58l-7.31,5.4l-9.17-12.61c-3.77,8.13-9.61,12.77-16.59,12.83v-9.28
		c6.82-0.76,11.3-10.64,11.63-25.6H260.8v-8.46h29.36v8.46h-9.77C280.28,26.57,279.9,30.5,279.25,34.05z M308.39,38.8h-5.46v20.63
		h-9.22V12.82h9.22v17.03h5.46V38.8z"/>
	<path class="st0" d="M358.55,32.91V40H311.4v-7.09h18.99v-3.98h9.17v3.98H358.55z M333.61,26.36c-5.13,2.84-12.44,4.48-20.09,4.58
		v-7.15c6.44-0.11,13.32-1.47,16.27-3.93h-15.72v-7.04h41.81v7.04H340c-0.11,0.27-0.22,0.55-0.38,0.82l17.47,3.6l-2.07,6.88
		L333.61,26.36z M356.37,50.86c0,6.71-8.79,9.22-21.4,9.22s-21.4-2.51-21.4-9.22c0-6.71,8.79-9.22,21.4-9.22
		S356.37,44.15,356.37,50.86z M346.55,50.86c0-1.64-4.75-2.35-11.57-2.35s-11.57,0.71-11.57,2.35c0,1.69,4.75,2.35,11.57,2.35
		S346.55,52.55,346.55,50.86z"/>
	<path class="st0" d="M395.07,22.21H363.2v-6.66h11.24V12h9.39v3.55h11.24V22.21z M364.94,31.65c0-5.46,6.5-8.3,14.19-8.3
		c7.7,0,14.14,2.84,14.14,8.3s-6.44,8.3-14.14,8.3C371.44,39.95,364.94,37.11,364.94,31.65z M398.46,40.82h8.95v18.61h-41.15V40.82
		h8.95v2.62h23.25V40.82z M373.62,31.65c0,1.31,2.18,2.02,5.51,2.02c3.33,0,5.51-0.71,5.51-2.02s-2.18-2.02-5.51-2.02
		C375.8,29.63,373.62,30.34,373.62,31.65z M398.46,52.55v-2.62h-23.25v2.62H398.46z M412.87,29.36h-5.46v9.82h-9.22V12.82h9.22v7.91
		h5.46V29.36z"/>
	<path class="st0" d="M463.03,49.28v8.51h-47.16v-8.51h18.94v-7.31H418v-8.41h7.09V22.37h-6.6v-8.46h41.92v8.46h-6.6v11.19h7.1v8.41
		h-16.81v7.31H463.03z M434.32,33.56h10.26V22.37h-10.26V33.56z"/>
	<path class="st0" d="M488.36,36.12h-18.94V13.37h27.62v6.39h-18.5v2.07h16.87v5.84h-16.87v2.07h10.42c4.2,0,8.3-0.49,10.75-1.36
		v6.28C497.25,35.63,492.72,36.12,488.36,36.12z M513.9,53.21v6.22h-42.14V46h32.58v-1.64h-32.69V38.2h41.75v13.32h-32.58v1.69
		H513.9z M504.18,26.9h-5.84v-7.53h5.84v-6.55h9.22v23.74h-9.22V26.9z"/>
</g>
<g>
	<path class="st0" d="M115.66,73.43l-5.15,13.53h-1.73l-5.15-13.53h1.75l4.3,11.44l4.3-11.44H115.66z"/>
	<path class="st0" d="M115.11,82.13c0-2.91,1.82-5.07,4.36-5.07s4.35,2.16,4.35,5.07c0,0.22,0,0.47-0.03,0.71h-7.11
		c0.17,1.66,1.25,2.89,2.8,2.89c1.19,0,2.11-0.61,2.43-1.4h1.6c-0.47,1.67-2.04,2.87-4.03,2.87
		C116.93,87.19,115.11,85.03,115.11,82.13z M119.47,78.53c-1.57,0-2.63,1.22-2.8,2.89h5.61C122.1,79.73,121.04,78.53,119.47,78.53z"
		/>
	<path class="st0" d="M127.3,77.3v1.47c0.36-0.71,1.35-1.71,2.95-1.71c2.05,0,3.5,1.64,3.5,4.24v5.66h-1.57V81.6
		c0-1.96-0.85-3.02-2.26-3.02c-1.52,0-2.61,1.59-2.61,3.38v5h-1.57V77.3H127.3z"/>
	<path class="st0" d="M140.3,78.83h-1.93v8.12h-1.57v-8.12h-1.93V77.3h1.93v-2.94h1.57v2.94h1.93V78.83z"/>
	<path class="st0" d="M148.08,86.96v-1.47c-0.36,0.71-1.35,1.71-2.95,1.71c-2.05,0-3.5-1.64-3.5-4.24V77.3h1.56v5.35
		c0,1.96,0.85,3.02,2.26,3.02c1.52,0,2.61-1.59,2.61-3.38v-5h1.57v9.66H148.08z"/>
	<path class="st0" d="M153.6,77.3v1.49c0.38-0.73,1.43-1.72,3.13-1.72c0.53,0,0.88,0.05,1.19,0.17v1.66
		c-0.33-0.17-0.76-0.27-1.29-0.27c-1.78,0-3.02,1.59-3.02,3.34v5h-1.57V77.3H153.6z"/>
	<path class="st0" d="M158.48,82.13c0-2.91,1.82-5.07,4.36-5.07s4.35,2.16,4.35,5.07c0,0.22,0,0.47-0.03,0.71h-7.11
		c0.17,1.66,1.25,2.89,2.8,2.89c1.19,0,2.11-0.61,2.43-1.4h1.6c-0.47,1.67-2.04,2.87-4.03,2.87
		C160.3,87.19,158.48,85.03,158.48,82.13z M162.84,78.53c-1.57,0-2.63,1.22-2.8,2.89h5.61C165.47,79.73,164.4,78.53,162.84,78.53z"
		/>
	<path class="st0" d="M174.95,86.96h-1.6V73.43h1.6V86.96z"/>
	<path class="st0" d="M178.98,77.3v1.47c0.36-0.71,1.35-1.71,2.95-1.71c2.05,0,3.5,1.64,3.5,4.24v5.66h-1.57V81.6
		c0-1.96-0.85-3.02-2.26-3.02c-1.52,0-2.61,1.59-2.61,3.38v5h-1.57V77.3H178.98z"/>
	<path class="st0" d="M195.36,77.3l-3.68,9.66h-1.66l-3.66-9.66h1.7l2.84,7.69l2.84-7.69H195.36z"/>
	<path class="st0" d="M195.84,82.13c0-2.91,1.82-5.07,4.36-5.07s4.35,2.16,4.35,5.07c0,0.22,0,0.47-0.03,0.71h-7.11
		c0.17,1.66,1.25,2.89,2.8,2.89c1.19,0,2.11-0.61,2.43-1.4h1.6c-0.47,1.67-2.04,2.87-4.03,2.87
		C197.67,87.19,195.84,85.03,195.84,82.13z M200.21,78.53c-1.57,0-2.63,1.22-2.8,2.89h5.61C202.84,79.73,201.77,78.53,200.21,78.53z
		"/>
	<path class="st0" d="M213.68,79.86h-1.53c-0.06-0.81-1.05-1.39-2.31-1.39c-1.26,0-2.17,0.56-2.17,1.28c0,0.79,0.55,1.28,2.67,1.6
		c2.61,0.39,3.54,1.33,3.54,2.84c0,1.88-1.78,2.99-3.94,2.99c-2.33,0-3.81-1.25-3.92-2.94h1.53c0.09,0.76,0.88,1.52,2.43,1.52
		c1.34,0,2.36-0.61,2.36-1.47c0-0.79-0.67-1.25-2.75-1.55c-2.37-0.35-3.47-1.2-3.47-2.89c0-1.71,1.63-2.8,3.75-2.8
		C212.01,77.06,213.61,78.22,213.68,79.86z"/>
	<path class="st0" d="M220.25,78.83h-1.93v8.12h-1.57v-8.12h-1.93V77.3h1.93v-2.94h1.57v2.94h1.93V78.83z"/>
	<path class="st0" d="M223.35,77.3v1.37c0.4-0.71,1.17-1.61,2.63-1.61c1.29,0,2.28,0.79,2.71,2.03c0.52-1.22,1.61-2.03,3.08-2.03
		c1.85,0,3.19,1.57,3.19,4.02v5.88h-1.57v-5.59c0-1.74-0.76-2.79-1.99-2.79c-1.31,0-2.25,1.42-2.25,3.18v5.2h-1.57v-5.52
		c0-1.81-0.78-2.85-1.99-2.85c-1.29,0-2.25,1.42-2.25,3.16v5.22h-1.57V77.3H223.35z"/>
	<path class="st0" d="M236.66,82.13c0-2.91,1.82-5.07,4.36-5.07s4.35,2.16,4.35,5.07c0,0.22,0,0.47-0.03,0.71h-7.11
		c0.17,1.66,1.25,2.89,2.8,2.89c1.19,0,2.11-0.61,2.43-1.4h1.6c-0.47,1.67-2.04,2.87-4.03,2.87
		C238.48,87.19,236.66,85.03,236.66,82.13z M241.02,78.53c-1.57,0-2.63,1.22-2.8,2.89h5.61C243.65,79.73,242.59,78.53,241.02,78.53z
		"/>
	<path class="st0" d="M248.85,77.3v1.47c0.36-0.71,1.35-1.71,2.95-1.71c2.05,0,3.5,1.64,3.5,4.24v5.66h-1.57V81.6
		c0-1.96-0.85-3.02-2.26-3.02c-1.52,0-2.61,1.59-2.61,3.38v5h-1.57V77.3H248.85z"/>
	<path class="st0" d="M261.86,78.83h-1.93v8.12h-1.57v-8.12h-1.93V77.3h1.93v-2.94h1.57v2.94h1.93V78.83z"/>
	<path class="st0" d="M267.11,80.18c0-4.09,2.71-7.08,6.38-7.08c3.15,0,5.32,2.03,5.96,4.86h-1.63c-0.52-1.91-2.08-3.23-4.3-3.23
		c-2.8,0-4.82,2.26-4.82,5.44c0,3.16,2.04,5.44,4.82,5.44c2.28,0,3.98-1.49,4.42-3.41h1.63c-0.53,2.82-2.86,5.05-6.08,5.05
		C269.82,87.26,267.11,84.27,267.11,80.18z"/>
	<path class="st0" d="M289.89,82.13c0,2.91-1.87,5.07-4.44,5.07c-2.58,0-4.45-2.16-4.45-5.07c0-2.91,1.87-5.07,4.45-5.07
		C288.02,77.06,289.89,79.22,289.89,82.13z M282.54,82.13c0,2.01,1.19,3.53,2.92,3.53c1.72,0,2.9-1.52,2.9-3.53
		c0-2.01-1.19-3.53-2.9-3.53C283.72,78.6,282.54,80.12,282.54,82.13z"/>
	<path class="st0" d="M293.39,77.3v1.37c0.39-0.71,1.17-1.61,2.63-1.61c1.29,0,2.28,0.79,2.71,2.03c0.52-1.22,1.61-2.03,3.08-2.03
		c1.85,0,3.19,1.57,3.19,4.02v5.88h-1.56v-5.59c0-1.74-0.76-2.79-1.99-2.79c-1.31,0-2.25,1.42-2.25,3.18v5.2h-1.57v-5.52
		c0-1.81-0.78-2.85-1.99-2.85c-1.29,0-2.25,1.42-2.25,3.16v5.22h-1.57V77.3H293.39z"/>
	<path class="st0" d="M308.72,85.52v5.54h-1.57V77.3h1.57v1.44c0.44-0.83,1.5-1.67,3.08-1.67c2.46,0,4.3,2.18,4.3,5.07
		c0,2.89-1.84,5.07-4.3,5.07C310.22,87.19,309.16,86.35,308.72,85.52z M314.57,82.13c0-2.01-1.16-3.53-2.9-3.53
		c-1.76,0-2.98,1.52-2.98,3.53c0,2.01,1.22,3.53,2.98,3.53C313.42,85.66,314.57,84.14,314.57,82.13z"/>
	<path class="st0" d="M319.6,77.3v1.49c0.38-0.73,1.43-1.72,3.13-1.72c0.53,0,0.88,0.05,1.19,0.17v1.66
		c-0.33-0.17-0.76-0.27-1.29-0.27c-1.78,0-3.02,1.59-3.02,3.34v5h-1.57V77.3H319.6z"/>
	<path class="st0" d="M324.48,82.13c0-2.91,1.82-5.07,4.36-5.07s4.35,2.16,4.35,5.07c0,0.22,0,0.47-0.03,0.71h-7.11
		c0.17,1.66,1.25,2.89,2.8,2.89c1.19,0,2.11-0.61,2.43-1.4h1.6c-0.47,1.67-2.04,2.87-4.03,2.87
		C326.3,87.19,324.48,85.03,324.48,82.13z M328.84,78.53c-1.57,0-2.63,1.22-2.8,2.89h5.61C331.47,79.73,330.4,78.53,328.84,78.53z"
		/>
	<path class="st0" d="M336.66,73v5.76c0.36-0.71,1.35-1.71,2.95-1.71c2.05,0,3.5,1.64,3.5,4.24v5.66h-1.57V81.6
		c0-1.96-0.85-3.02-2.26-3.02c-1.52,0-2.61,1.59-2.61,3.38v5h-1.57V73H336.66z"/>
	<path class="st0" d="M344.84,82.13c0-2.91,1.82-5.07,4.36-5.07s4.35,2.16,4.35,5.07c0,0.22,0,0.47-0.03,0.71h-7.11
		c0.17,1.66,1.25,2.89,2.8,2.89c1.19,0,2.11-0.61,2.43-1.4h1.6c-0.47,1.67-2.04,2.87-4.03,2.87
		C346.66,87.19,344.84,85.03,344.84,82.13z M349.2,78.53c-1.57,0-2.63,1.22-2.8,2.89h5.61C351.83,79.73,350.77,78.53,349.2,78.53z"
		/>
	<path class="st0" d="M357.03,77.3v1.47c0.37-0.71,1.35-1.71,2.95-1.71c2.05,0,3.5,1.64,3.5,4.24v5.66h-1.57V81.6
		c0-1.96-0.85-3.02-2.26-3.02c-1.52,0-2.61,1.59-2.61,3.38v5h-1.57V77.3H357.03z"/>
	<path class="st0" d="M372.83,79.86h-1.53c-0.06-0.81-1.05-1.39-2.31-1.39s-2.17,0.56-2.17,1.28c0,0.79,0.55,1.28,2.67,1.6
		c2.61,0.39,3.54,1.33,3.54,2.84c0,1.88-1.78,2.99-3.94,2.99c-2.33,0-3.81-1.25-3.92-2.94h1.54c0.09,0.76,0.88,1.52,2.43,1.52
		c1.34,0,2.36-0.61,2.36-1.47c0-0.79-0.67-1.25-2.75-1.55c-2.37-0.35-3.46-1.2-3.46-2.89c0-1.71,1.63-2.8,3.75-2.8
		S372.75,78.22,372.83,79.86z"/>
	<path class="st0" d="M376.75,73.98c0,0.66-0.44,1.15-1.05,1.15c-0.59,0-1.03-0.49-1.03-1.15c0-0.66,0.44-1.15,1.03-1.15
		C376.31,72.84,376.75,73.33,376.75,73.98z M374.93,86.97V77.3h1.57v9.68H374.93z"/>
	<path class="st0" d="M387.01,77.3l-3.68,9.66h-1.66l-3.66-9.66h1.7l2.84,7.69l2.84-7.69H387.01z"/>
	<path class="st0" d="M387.49,82.13c0-2.91,1.82-5.07,4.36-5.07s4.35,2.16,4.35,5.07c0,0.22,0,0.47-0.03,0.71h-7.11
		c0.17,1.66,1.25,2.89,2.8,2.89c1.19,0,2.11-0.61,2.43-1.4h1.6c-0.47,1.67-2.04,2.87-4.03,2.87
		C389.32,87.19,387.49,85.03,387.49,82.13z M391.86,78.53c-1.57,0-2.63,1.22-2.8,2.89h5.61C394.49,79.73,393.42,78.53,391.86,78.53z
		"/>
	<path class="st0" d="M403.86,85.52v5.54h-1.57V77.3h1.57v1.44c0.44-0.83,1.5-1.67,3.08-1.67c2.46,0,4.3,2.18,4.3,5.07
		c0,2.89-1.84,5.07-4.3,5.07C405.36,87.19,404.3,86.35,403.86,85.52z M409.71,82.13c0-2.01-1.15-3.53-2.9-3.53
		c-1.76,0-2.98,1.52-2.98,3.53c0,2.01,1.22,3.53,2.98,3.53C408.56,85.66,409.71,84.14,409.71,82.13z"/>
	<path class="st0" d="M421.61,82.13c0,2.91-1.87,5.07-4.44,5.07c-2.58,0-4.45-2.16-4.45-5.07c0-2.91,1.87-5.07,4.45-5.07
		C419.74,77.06,421.61,79.22,421.61,82.13z M414.25,82.13c0,2.01,1.19,3.53,2.92,3.53c1.72,0,2.9-1.52,2.9-3.53
		c0-2.01-1.19-3.53-2.9-3.53C415.44,78.6,414.25,80.12,414.25,82.13z"/>
	<path class="st0" d="M425.1,77.3v1.49c0.38-0.73,1.43-1.72,3.13-1.72c0.53,0,0.88,0.05,1.19,0.17v1.66
		c-0.33-0.17-0.76-0.27-1.29-0.27c-1.78,0-3.02,1.59-3.02,3.34v5h-1.57V77.3H425.1z"/>
	<path class="st0" d="M435.71,78.83h-1.93v8.12h-1.57v-8.12h-1.93V77.3h1.93v-2.94h1.57v2.94h1.93V78.83z"/>
	<path class="st0" d="M436.5,82.13c0-2.89,1.84-5.07,4.3-5.07c1.58,0,2.64,0.84,3.08,1.67V77.3h1.57v9.66h-1.57v-1.44
		c-0.44,0.83-1.5,1.67-3.08,1.67C438.34,87.19,436.5,85.01,436.5,82.13z M443.92,82.13c0-2.01-1.22-3.53-2.98-3.53
		c-1.75,0-2.9,1.52-2.9,3.53c0,2.01,1.16,3.53,2.9,3.53C442.7,85.66,443.92,84.14,443.92,82.13z"/>
	<path class="st0" d="M447.84,86.96V73h1.57v13.95H447.84z"/>
	<path class="st0" d="M465.33,77.16h-1.64c-0.17-1.44-1.34-2.53-3.24-2.53c-1.92,0-2.99,0.88-2.99,2.09c0,1.4,1.12,2.01,3.72,2.62
		c2.99,0.71,4.19,1.99,4.19,4c0,2.43-2.14,3.92-4.85,3.92c-2.84,0-4.89-1.72-5.06-4.34h1.64c0.17,1.64,1.49,2.8,3.53,2.8
		c1.82,0,3.12-0.93,3.12-2.28c0-1.5-1.11-2.11-3.75-2.74c-2.75-0.64-4.15-1.74-4.15-3.99c0-2.25,1.99-3.61,4.68-3.61
		C463.2,73.11,465.18,74.8,465.33,77.16z"/>
	<path class="st0" d="M466.79,82.13c0-2.91,1.82-5.07,4.36-5.07s4.35,2.16,4.35,5.07c0,0.22,0,0.47-0.03,0.71h-7.11
		c0.17,1.66,1.25,2.89,2.8,2.89c1.18,0,2.11-0.61,2.43-1.4h1.6c-0.47,1.67-2.04,2.87-4.03,2.87
		C468.61,87.19,466.79,85.03,466.79,82.13z M471.15,78.53c-1.57,0-2.63,1.22-2.8,2.89h5.61C473.78,79.73,472.71,78.53,471.15,78.53z
		"/>
	<path class="st0" d="M478.97,77.3v1.49c0.38-0.73,1.43-1.72,3.13-1.72c0.53,0,0.88,0.05,1.19,0.17v1.66
		c-0.33-0.17-0.76-0.27-1.29-0.27c-1.78,0-3.02,1.59-3.02,3.34v5h-1.57V77.3H478.97z"/>
	<path class="st0" d="M493.05,77.3l-3.68,9.66h-1.66l-3.66-9.66h1.7l2.84,7.69l2.84-7.69H493.05z"/>
	<path class="st0" d="M496.39,73.98c0,0.66-0.44,1.15-1.05,1.15c-0.59,0-1.03-0.49-1.03-1.15c0-0.66,0.44-1.15,1.03-1.15
		C495.95,72.84,496.39,73.33,496.39,73.98z M494.56,86.97V77.3h1.57v9.68H494.56z"/>
	<path class="st0" d="M502.53,87.19c-2.58,0-4.47-2.16-4.47-5.07c0-2.91,1.87-5.07,4.44-5.07c2.05,0,3.66,1.47,4.09,3.48h-1.6
		c-0.35-1.15-1.26-1.94-2.49-1.94c-1.73,0-2.9,1.52-2.9,3.53c0,2.01,1.17,3.53,2.9,3.53c1.23,0,2.17-0.81,2.52-1.98h1.6
		C506.14,85.78,504.55,87.19,502.53,87.19z"/>
	<path class="st0" d="M508,82.13c0-2.91,1.82-5.07,4.36-5.07c2.54,0,4.35,2.16,4.35,5.07c0,0.22,0,0.47-0.03,0.71h-7.11
		c0.17,1.66,1.25,2.89,2.8,2.89c1.19,0,2.11-0.61,2.43-1.4h1.6c-0.47,1.67-2.04,2.87-4.03,2.87C509.82,87.19,508,85.03,508,82.13z
		 M512.36,78.53c-1.57,0-2.63,1.22-2.8,2.89h5.61C514.99,79.73,513.92,78.53,512.36,78.53z"/>
</g>
<g>
	<g>
		<linearGradient id="SVGID_1_" gradientUnits="userSpaceOnUse" x1="59.3751" y1="35.2019" x2="83.1783" y2="35.2019">
			<stop  offset="0" style="stop-color:#4C96D2"/>
			<stop  offset="0.999" style="stop-color:#834396"/>
		</linearGradient>
		<polygon class="st1" points="72.86,52.27 59.38,52.27 67.01,26.94 83.18,18.14 		"/>
	</g>
	<g>
		
			<linearGradient id="SVGID_00000121253407173870592050000011149890433305192583_" gradientUnits="userSpaceOnUse" x1="4.1182" y1="49.7555" x2="32.9005" y2="49.7555">
			<stop  offset="0" style="stop-color:#C49FC9"/>
			<stop  offset="0.9971" style="stop-color:#984F9B"/>
		</linearGradient>
		<polygon style="fill:url(#SVGID_00000121253407173870592050000011149890433305192583_);" points="19.4,83.47 4.12,32.76 
			12.54,15.98 32.9,83.53 		"/>
	</g>
	<g>
		
			<linearGradient id="SVGID_00000043423186639183731860000003189201794419361162_" gradientUnits="userSpaceOnUse" x1="44.0913" y1="26.9387" x2="72.8736" y2="26.9387">
			<stop  offset="0" style="stop-color:#C49FC9"/>
			<stop  offset="0.9971" style="stop-color:#984F9B"/>
		</linearGradient>
		<polygon style="fill:url(#SVGID_00000043423186639183731860000003189201794419361162_);" points="59.38,52.27 44.09,1.56 
			57.62,1.7 72.87,52.32 		"/>
	</g>
	<g>
		
			<linearGradient id="SVGID_00000166668269340028211830000005802428054373120420_" gradientUnits="userSpaceOnUse" x1="19.402" y1="42.5138" x2="57.6161" y2="42.5138">
			<stop  offset="0" style="stop-color:#4C96D2"/>
			<stop  offset="0.999" style="stop-color:#834396"/>
		</linearGradient>
		<polygon style="fill:url(#SVGID_00000166668269340028211830000005802428054373120420_);" points="32.88,83.47 19.4,83.47 
			44.09,1.56 57.62,1.7 		"/>
	</g>
</g>
</svg>
