<?xml version="1.0" encoding="utf-8"?>
<!-- Generator: Adobe Illustrator 26.4.1, SVG Export Plug-In . SVG Version: 6.00 Build 0)  -->
<svg version="1.1" id="레이어_1" xmlns="http://www.w3.org/2000/svg" xmlns:xlink="http://www.w3.org/1999/xlink" x="0px"
	 y="0px" viewBox="0 0 519 91.51" style="enable-background:new 0 0 519 91.51;" xml:space="preserve">
<style type="text/css">
	.st0{fill:#FFFFFF;}
	.st1{fill:url(#SVGID_1_);}
	.st2{fill:url(#SVGID_00000017505198736300207400000006157207384906463113_);}
	.st3{fill:url(#SVGID_00000151512238512566256340000000372879089166515600_);}
	.st4{fill:url(#SVGID_00000155861628996085290120000002049373852369353369_);}
</style>
<g>
	<path class="st0" d="M123.72,41.76h-21.4V13.81h8.3v6.71h4.8v-6.71h8.3v9.44h3.82v-9.77h8.51v33.51h-8.51V31.88h-3.82V41.76z
		 M148.45,51.58v8.3H105V44.92h9.39v6.66H148.45z M115.43,34.44v-6.77h-4.8v6.77H115.43z M147.9,47.81h-8.62V13.26h8.62V47.81z"/>
	<path class="st0" d="M174.21,35.91l13.26,15.99l-7.15,5.68l-9.33-11.9c-3.77,7.64-9.72,11.95-16.7,12.01v-9.06
		c6.71-0.66,11.03-9.12,11.63-21.29h-10.59v-8.51h10.53V13.1h9.44v5.73h9.93v8.51H175.2C175.03,30.4,174.71,33.3,174.21,35.91z
		 M199.05,13.26v46.61h-9.22V40.06h-7.81v-8.73h7.81V13.26H199.05z"/>
	<path class="st0" d="M253.14,52.45h-18.83v8.51h-9.5v-8.51h-18.83v-8.3h47.16V52.45z M251.01,41.26h-42.3V13.81h41.75v7.53h-32.64
		v2.67h31.88v7.04h-31.88v2.67h33.19V41.26z"/>
	<path class="st0" d="M278.31,34.5l13.32,17.58l-7.31,5.4l-9.17-12.61c-3.77,8.13-9.61,12.77-16.59,12.83v-9.28
		c6.82-0.76,11.3-10.64,11.63-25.6h-10.32v-8.46h29.36v8.46h-9.77C279.34,27.02,278.96,30.95,278.31,34.5z M307.45,39.24h-5.46
		v20.63h-9.22V13.26h9.22v17.03h5.46V39.24z"/>
	<path class="st0" d="M357.61,33.35v7.09h-47.16v-7.09h18.99v-3.98h9.17v3.98H357.61z M332.67,26.8
		c-5.13,2.84-12.44,4.48-20.09,4.58v-7.15c6.44-0.11,13.32-1.47,16.27-3.93h-15.72v-7.04h41.81v7.04h-15.88
		c-0.11,0.27-0.22,0.55-0.38,0.82l17.47,3.6l-2.07,6.88L332.67,26.8z M355.43,51.31c0,6.71-8.79,9.22-21.4,9.22
		s-21.4-2.51-21.4-9.22c0-6.71,8.79-9.22,21.4-9.22S355.43,44.59,355.43,51.31z M345.61,51.31c0-1.64-4.75-2.35-11.57-2.35
		s-11.57,0.71-11.57,2.35c0,1.69,4.75,2.35,11.57,2.35S345.61,53,345.61,51.31z"/>
	<path class="st0" d="M394.13,22.65h-31.88v-6.66h11.24v-3.55h9.39v3.55h11.24V22.65z M364,32.09c0-5.46,6.5-8.3,14.19-8.3
		c7.7,0,14.14,2.84,14.14,8.3s-6.44,8.3-14.14,8.3C370.5,40.39,364,37.55,364,32.09z M397.52,41.26h8.95v18.61h-41.15V41.26h8.95
		v2.62h23.25V41.26z M372.68,32.09c0,1.31,2.18,2.02,5.51,2.02c3.33,0,5.51-0.71,5.51-2.02s-2.18-2.02-5.51-2.02
		C374.86,30.07,372.68,30.78,372.68,32.09z M397.52,53v-2.62h-23.25V53H397.52z M411.92,29.8h-5.46v9.82h-9.22V13.26h9.22v7.91h5.46
		V29.8z"/>
	<path class="st0" d="M462.09,49.72v8.51h-47.16v-8.51h18.94v-7.31h-16.81V34h7.09V22.82h-6.6v-8.46h41.92v8.46h-6.6V34h7.1v8.41
		h-16.81v7.31H462.09z M433.38,34h10.26V22.82h-10.26V34z"/>
	<path class="st0" d="M487.42,36.57h-18.94V13.81h27.62v6.39h-18.5v2.07h16.87v5.84h-16.87v2.07h10.42c4.2,0,8.3-0.49,10.75-1.36
		v6.28C496.31,36.08,491.78,36.57,487.42,36.57z M512.96,53.65v6.22h-42.14V46.45h32.58v-1.64h-32.69v-6.17h41.75v13.32h-32.58v1.69
		H512.96z M503.24,27.35h-5.84v-7.53h5.84v-6.55h9.22v23.74h-9.22V27.35z"/>
</g>
<g>
	<path class="st0" d="M114.72,73.87l-5.15,13.53h-1.73l-5.15-13.53h1.75l4.3,11.44l4.3-11.44H114.72z"/>
	<path class="st0" d="M114.17,82.57c0-2.91,1.82-5.07,4.36-5.07s4.35,2.16,4.35,5.07c0,0.22,0,0.47-0.03,0.71h-7.11
		c0.17,1.66,1.25,2.89,2.8,2.89c1.19,0,2.11-0.61,2.43-1.4h1.6c-0.47,1.67-2.04,2.87-4.03,2.87
		C115.99,87.64,114.17,85.48,114.17,82.57z M118.53,78.97c-1.57,0-2.63,1.22-2.8,2.89h5.61C121.16,80.17,120.09,78.97,118.53,78.97z
		"/>
	<path class="st0" d="M126.35,77.74v1.47c0.36-0.71,1.35-1.71,2.95-1.71c2.05,0,3.5,1.64,3.5,4.24v5.66h-1.57v-5.35
		c0-1.96-0.85-3.02-2.26-3.02c-1.52,0-2.61,1.59-2.61,3.38v5h-1.57v-9.66H126.35z"/>
	<path class="st0" d="M139.36,79.28h-1.93v8.12h-1.57v-8.12h-1.93v-1.54h1.93V74.8h1.57v2.94h1.93V79.28z"/>
	<path class="st0" d="M147.14,87.4v-1.47c-0.36,0.71-1.35,1.71-2.95,1.71c-2.05,0-3.5-1.64-3.5-4.24v-5.66h1.56v5.35
		c0,1.96,0.85,3.02,2.26,3.02c1.52,0,2.61-1.59,2.61-3.38v-5h1.57v9.66H147.14z"/>
	<path class="st0" d="M152.66,77.74v1.49c0.38-0.73,1.43-1.72,3.13-1.72c0.53,0,0.88,0.05,1.19,0.17v1.66
		c-0.33-0.17-0.76-0.27-1.29-0.27c-1.78,0-3.02,1.59-3.02,3.34v5h-1.57v-9.66H152.66z"/>
	<path class="st0" d="M157.54,82.57c0-2.91,1.82-5.07,4.36-5.07s4.35,2.16,4.35,5.07c0,0.22,0,0.47-0.03,0.71h-7.11
		c0.17,1.66,1.25,2.89,2.8,2.89c1.19,0,2.11-0.61,2.43-1.4h1.6c-0.47,1.67-2.04,2.87-4.03,2.87
		C159.36,87.64,157.54,85.48,157.54,82.57z M161.9,78.97c-1.57,0-2.63,1.22-2.8,2.89h5.61C164.53,80.17,163.46,78.97,161.9,78.97z"
		/>
	<path class="st0" d="M174.01,87.4h-1.6V73.87h1.6V87.4z"/>
	<path class="st0" d="M178.04,77.74v1.47c0.36-0.71,1.35-1.71,2.95-1.71c2.05,0,3.5,1.64,3.5,4.24v5.66h-1.57v-5.35
		c0-1.96-0.85-3.02-2.26-3.02c-1.52,0-2.61,1.59-2.61,3.38v5h-1.57v-9.66H178.04z"/>
	<path class="st0" d="M194.42,77.74l-3.68,9.66h-1.66l-3.66-9.66h1.7l2.84,7.69l2.84-7.69H194.42z"/>
	<path class="st0" d="M194.9,82.57c0-2.91,1.82-5.07,4.36-5.07s4.35,2.16,4.35,5.07c0,0.22,0,0.47-0.03,0.71h-7.11
		c0.17,1.66,1.25,2.89,2.8,2.89c1.19,0,2.11-0.61,2.43-1.4h1.6c-0.47,1.67-2.04,2.87-4.03,2.87
		C196.73,87.64,194.9,85.48,194.9,82.57z M199.26,78.97c-1.57,0-2.63,1.22-2.8,2.89h5.61C201.89,80.17,200.83,78.97,199.26,78.97z"
		/>
	<path class="st0" d="M212.74,80.31h-1.53c-0.06-0.81-1.05-1.39-2.31-1.39c-1.26,0-2.17,0.56-2.17,1.28c0,0.79,0.55,1.28,2.67,1.6
		c2.61,0.39,3.54,1.33,3.54,2.84c0,1.88-1.78,2.99-3.94,2.99c-2.33,0-3.81-1.25-3.92-2.94h1.53c0.09,0.76,0.88,1.52,2.43,1.52
		c1.34,0,2.36-0.61,2.36-1.47c0-0.79-0.67-1.25-2.75-1.55c-2.37-0.35-3.47-1.2-3.47-2.89c0-1.71,1.63-2.8,3.75-2.8
		C211.07,77.5,212.67,78.67,212.74,80.31z"/>
	<path class="st0" d="M219.31,79.28h-1.93v8.12h-1.57v-8.12h-1.93v-1.54h1.93V74.8h1.57v2.94h1.93V79.28z"/>
	<path class="st0" d="M222.41,77.74v1.37c0.4-0.71,1.17-1.61,2.63-1.61c1.29,0,2.28,0.79,2.71,2.03c0.52-1.22,1.61-2.03,3.08-2.03
		c1.85,0,3.19,1.57,3.19,4.02v5.88h-1.57v-5.59c0-1.74-0.76-2.79-1.99-2.79c-1.31,0-2.25,1.42-2.25,3.18v5.2h-1.57v-5.52
		c0-1.81-0.78-2.85-1.99-2.85c-1.29,0-2.25,1.42-2.25,3.16v5.22h-1.57v-9.66H222.41z"/>
	<path class="st0" d="M235.72,82.57c0-2.91,1.82-5.07,4.36-5.07s4.35,2.16,4.35,5.07c0,0.22,0,0.47-0.03,0.71h-7.11
		c0.17,1.66,1.25,2.89,2.8,2.89c1.19,0,2.11-0.61,2.43-1.4h1.6c-0.47,1.67-2.04,2.87-4.03,2.87
		C237.54,87.64,235.72,85.48,235.72,82.57z M240.08,78.97c-1.57,0-2.63,1.22-2.8,2.89h5.61C242.71,80.17,241.65,78.97,240.08,78.97z
		"/>
	<path class="st0" d="M247.91,77.74v1.47c0.36-0.71,1.35-1.71,2.95-1.71c2.05,0,3.5,1.64,3.5,4.24v5.66h-1.57v-5.35
		c0-1.96-0.85-3.02-2.26-3.02c-1.52,0-2.61,1.59-2.61,3.38v5h-1.57v-9.66H247.91z"/>
	<path class="st0" d="M260.91,79.28h-1.93v8.12h-1.57v-8.12h-1.93v-1.54h1.93V74.8h1.57v2.94h1.93V79.28z"/>
	<path class="st0" d="M266.17,80.63c0-4.09,2.71-7.08,6.38-7.08c3.15,0,5.32,2.03,5.96,4.86h-1.63c-0.52-1.91-2.08-3.23-4.3-3.23
		c-2.8,0-4.82,2.26-4.82,5.44c0,3.16,2.04,5.44,4.82,5.44c2.28,0,3.98-1.49,4.42-3.41h1.63c-0.53,2.82-2.86,5.05-6.08,5.05
		C268.88,87.71,266.17,84.72,266.17,80.63z"/>
	<path class="st0" d="M288.95,82.57c0,2.91-1.87,5.07-4.44,5.07c-2.58,0-4.45-2.16-4.45-5.07c0-2.91,1.87-5.07,4.45-5.07
		C287.08,77.5,288.95,79.67,288.95,82.57z M281.6,82.57c0,2.01,1.19,3.53,2.92,3.53c1.72,0,2.9-1.52,2.9-3.53
		c0-2.01-1.19-3.53-2.9-3.53C282.78,79.04,281.6,80.56,281.6,82.57z"/>
	<path class="st0" d="M292.45,77.74v1.37c0.39-0.71,1.17-1.61,2.63-1.61c1.29,0,2.28,0.79,2.71,2.03c0.52-1.22,1.61-2.03,3.08-2.03
		c1.85,0,3.19,1.57,3.19,4.02v5.88h-1.56v-5.59c0-1.74-0.76-2.79-1.99-2.79c-1.31,0-2.25,1.42-2.25,3.18v5.2h-1.57v-5.52
		c0-1.81-0.78-2.85-1.99-2.85c-1.29,0-2.25,1.42-2.25,3.16v5.22h-1.57v-9.66H292.45z"/>
	<path class="st0" d="M307.78,85.97v5.54h-1.57V77.74h1.57v1.44c0.44-0.83,1.5-1.67,3.08-1.67c2.46,0,4.3,2.18,4.3,5.07
		c0,2.89-1.84,5.07-4.3,5.07C309.28,87.64,308.22,86.79,307.78,85.97z M313.63,82.57c0-2.01-1.16-3.53-2.9-3.53
		c-1.76,0-2.98,1.52-2.98,3.53c0,2.01,1.22,3.53,2.98,3.53C312.47,86.1,313.63,84.58,313.63,82.57z"/>
	<path class="st0" d="M318.66,77.74v1.49c0.38-0.73,1.43-1.72,3.13-1.72c0.53,0,0.88,0.05,1.19,0.17v1.66
		c-0.33-0.17-0.76-0.27-1.29-0.27c-1.78,0-3.02,1.59-3.02,3.34v5h-1.57v-9.66H318.66z"/>
	<path class="st0" d="M323.54,82.57c0-2.91,1.82-5.07,4.36-5.07s4.35,2.16,4.35,5.07c0,0.22,0,0.47-0.03,0.71h-7.11
		c0.17,1.66,1.25,2.89,2.8,2.89c1.19,0,2.11-0.61,2.43-1.4h1.6c-0.47,1.67-2.04,2.87-4.03,2.87
		C325.36,87.64,323.54,85.48,323.54,82.57z M327.9,78.97c-1.57,0-2.63,1.22-2.8,2.89h5.61C330.53,80.17,329.46,78.97,327.9,78.97z"
		/>
	<path class="st0" d="M335.72,73.45v5.76c0.36-0.71,1.35-1.71,2.95-1.71c2.05,0,3.5,1.64,3.5,4.24v5.66h-1.57v-5.35
		c0-1.96-0.85-3.02-2.26-3.02c-1.52,0-2.61,1.59-2.61,3.38v5h-1.57V73.45H335.72z"/>
	<path class="st0" d="M343.9,82.57c0-2.91,1.82-5.07,4.36-5.07s4.35,2.16,4.35,5.07c0,0.22,0,0.47-0.03,0.71h-7.11
		c0.17,1.66,1.25,2.89,2.8,2.89c1.19,0,2.11-0.61,2.43-1.4h1.6c-0.47,1.67-2.04,2.87-4.03,2.87
		C345.72,87.64,343.9,85.48,343.9,82.57z M348.26,78.97c-1.57,0-2.63,1.22-2.8,2.89h5.61C350.89,80.17,349.83,78.97,348.26,78.97z"
		/>
	<path class="st0" d="M356.09,77.74v1.47c0.37-0.71,1.35-1.71,2.95-1.71c2.05,0,3.5,1.64,3.5,4.24v5.66h-1.57v-5.35
		c0-1.96-0.85-3.02-2.26-3.02c-1.52,0-2.61,1.59-2.61,3.38v5h-1.57v-9.66H356.09z"/>
	<path class="st0" d="M371.89,80.31h-1.53c-0.06-0.81-1.05-1.39-2.31-1.39s-2.17,0.56-2.17,1.28c0,0.79,0.55,1.28,2.67,1.6
		c2.61,0.39,3.54,1.33,3.54,2.84c0,1.88-1.78,2.99-3.94,2.99c-2.33,0-3.81-1.25-3.92-2.94h1.54c0.09,0.76,0.88,1.52,2.43,1.52
		c1.34,0,2.36-0.61,2.36-1.47c0-0.79-0.67-1.25-2.75-1.55c-2.37-0.35-3.46-1.2-3.46-2.89c0-1.71,1.63-2.8,3.75-2.8
		S371.81,78.67,371.89,80.31z"/>
	<path class="st0" d="M375.81,74.43c0,0.66-0.44,1.15-1.05,1.15c-0.59,0-1.03-0.49-1.03-1.15c0-0.66,0.44-1.15,1.03-1.15
		C375.37,73.28,375.81,73.77,375.81,74.43z M373.99,87.42v-9.68h1.57v9.68H373.99z"/>
	<path class="st0" d="M386.07,77.74l-3.68,9.66h-1.66l-3.66-9.66h1.7l2.84,7.69l2.84-7.69H386.07z"/>
	<path class="st0" d="M386.55,82.57c0-2.91,1.82-5.07,4.36-5.07s4.35,2.16,4.35,5.07c0,0.22,0,0.47-0.03,0.71h-7.11
		c0.17,1.66,1.25,2.89,2.8,2.89c1.19,0,2.11-0.61,2.43-1.4h1.6c-0.47,1.67-2.04,2.87-4.03,2.87
		C388.38,87.64,386.55,85.48,386.55,82.57z M390.91,78.97c-1.57,0-2.63,1.22-2.8,2.89h5.61C393.54,80.17,392.48,78.97,390.91,78.97z
		"/>
	<path class="st0" d="M402.92,85.97v5.54h-1.57V77.74h1.57v1.44c0.44-0.83,1.5-1.67,3.08-1.67c2.46,0,4.3,2.18,4.3,5.07
		c0,2.89-1.84,5.07-4.3,5.07C404.42,87.64,403.36,86.79,402.92,85.97z M408.77,82.57c0-2.01-1.15-3.53-2.9-3.53
		c-1.76,0-2.98,1.52-2.98,3.53c0,2.01,1.22,3.53,2.98,3.53C407.62,86.1,408.77,84.58,408.77,82.57z"/>
	<path class="st0" d="M420.67,82.57c0,2.91-1.87,5.07-4.44,5.07c-2.58,0-4.45-2.16-4.45-5.07c0-2.91,1.87-5.07,4.45-5.07
		C418.8,77.5,420.67,79.67,420.67,82.57z M413.31,82.57c0,2.01,1.19,3.53,2.92,3.53c1.72,0,2.9-1.52,2.9-3.53
		c0-2.01-1.19-3.53-2.9-3.53C414.5,79.04,413.31,80.56,413.31,82.57z"/>
	<path class="st0" d="M424.16,77.74v1.49c0.38-0.73,1.43-1.72,3.13-1.72c0.53,0,0.88,0.05,1.19,0.17v1.66
		c-0.33-0.17-0.76-0.27-1.29-0.27c-1.78,0-3.02,1.59-3.02,3.34v5h-1.57v-9.66H424.16z"/>
	<path class="st0" d="M434.77,79.28h-1.93v8.12h-1.57v-8.12h-1.93v-1.54h1.93V74.8h1.57v2.94h1.93V79.28z"/>
	<path class="st0" d="M435.56,82.57c0-2.89,1.84-5.07,4.3-5.07c1.58,0,2.64,0.84,3.08,1.67v-1.44h1.57v9.66h-1.57v-1.44
		c-0.44,0.83-1.5,1.67-3.08,1.67C437.4,87.64,435.56,85.46,435.56,82.57z M442.98,82.57c0-2.01-1.22-3.53-2.98-3.53
		c-1.75,0-2.9,1.52-2.9,3.53c0,2.01,1.16,3.53,2.9,3.53C441.76,86.1,442.98,84.58,442.98,82.57z"/>
	<path class="st0" d="M446.9,87.4V73.45h1.57V87.4H446.9z"/>
	<path class="st0" d="M464.39,77.6h-1.64c-0.17-1.44-1.34-2.53-3.24-2.53c-1.92,0-2.99,0.88-2.99,2.09c0,1.4,1.12,2.01,3.72,2.62
		c2.99,0.71,4.19,1.99,4.19,4c0,2.43-2.14,3.92-4.85,3.92c-2.84,0-4.89-1.72-5.06-4.34h1.64c0.17,1.64,1.49,2.8,3.53,2.8
		c1.82,0,3.12-0.93,3.12-2.28c0-1.5-1.11-2.11-3.75-2.74c-2.75-0.64-4.15-1.74-4.15-3.99c0-2.25,1.99-3.61,4.68-3.61
		C462.26,73.55,464.23,75.24,464.39,77.6z"/>
	<path class="st0" d="M465.84,82.57c0-2.91,1.82-5.07,4.36-5.07s4.35,2.16,4.35,5.07c0,0.22,0,0.47-0.03,0.71h-7.11
		c0.17,1.66,1.25,2.89,2.8,2.89c1.18,0,2.11-0.61,2.43-1.4h1.6c-0.47,1.67-2.04,2.87-4.03,2.87
		C467.67,87.64,465.84,85.48,465.84,82.57z M470.21,78.97c-1.57,0-2.63,1.22-2.8,2.89h5.61C472.84,80.17,471.77,78.97,470.21,78.97z
		"/>
	<path class="st0" d="M478.03,77.74v1.49c0.38-0.73,1.43-1.72,3.13-1.72c0.53,0,0.88,0.05,1.19,0.17v1.66
		c-0.33-0.17-0.76-0.27-1.29-0.27c-1.78,0-3.02,1.59-3.02,3.34v5h-1.57v-9.66H478.03z"/>
	<path class="st0" d="M492.1,77.74l-3.68,9.66h-1.66l-3.66-9.66h1.7l2.84,7.69l2.84-7.69H492.1z"/>
	<path class="st0" d="M495.45,74.43c0,0.66-0.44,1.15-1.05,1.15c-0.59,0-1.03-0.49-1.03-1.15c0-0.66,0.44-1.15,1.03-1.15
		C495.01,73.28,495.45,73.77,495.45,74.43z M493.62,87.42v-9.68h1.57v9.68H493.62z"/>
	<path class="st0" d="M501.59,87.64c-2.58,0-4.47-2.16-4.47-5.07c0-2.91,1.87-5.07,4.44-5.07c2.05,0,3.66,1.47,4.09,3.48h-1.6
		c-0.35-1.15-1.26-1.94-2.49-1.94c-1.73,0-2.9,1.52-2.9,3.53c0,2.01,1.17,3.53,2.9,3.53c1.23,0,2.17-0.81,2.52-1.98h1.6
		C505.2,86.22,503.61,87.64,501.59,87.64z"/>
	<path class="st0" d="M507.06,82.57c0-2.91,1.82-5.07,4.36-5.07c2.54,0,4.35,2.16,4.35,5.07c0,0.22,0,0.47-0.03,0.71h-7.11
		c0.17,1.66,1.25,2.89,2.8,2.89c1.19,0,2.11-0.61,2.43-1.4h1.6c-0.47,1.67-2.04,2.87-4.03,2.87
		C508.88,87.64,507.06,85.48,507.06,82.57z M511.42,78.97c-1.57,0-2.63,1.22-2.8,2.89h5.61C514.05,80.17,512.98,78.97,511.42,78.97z
		"/>
</g>
<g>
	<g>
		<linearGradient id="SVGID_1_" gradientUnits="userSpaceOnUse" x1="58.4342" y1="35.6467" x2="82.2374" y2="35.6467">
			<stop  offset="0" style="stop-color:#4A9FE3"/>
			<stop  offset="0.999" style="stop-color:#BA00E9"/>
		</linearGradient>
		<polygon class="st1" points="71.92,52.71 58.43,52.71 66.07,27.38 82.24,18.58 		"/>
	</g>
	<g>
		
			<linearGradient id="SVGID_00000003089887500590274740000016695366055649146543_" gradientUnits="userSpaceOnUse" x1="3.1772" y1="50.2003" x2="31.9595" y2="50.2003">
			<stop  offset="0" style="stop-color:#E4A0FF"/>
			<stop  offset="0.9971" style="stop-color:#C442D1"/>
		</linearGradient>
		<polygon style="fill:url(#SVGID_00000003089887500590274740000016695366055649146543_);" points="18.46,83.92 3.18,33.21 
			11.6,16.43 31.96,83.97 		"/>
	</g>
	<g>
		
			<linearGradient id="SVGID_00000080171491630634945690000013531541217150710695_" gradientUnits="userSpaceOnUse" x1="43.1504" y1="27.3835" x2="71.9327" y2="27.3835">
			<stop  offset="0" style="stop-color:#E4A0FF"/>
			<stop  offset="0.9971" style="stop-color:#C442D1"/>
		</linearGradient>
		<polygon style="fill:url(#SVGID_00000080171491630634945690000013531541217150710695_);" points="58.43,52.71 43.15,2 56.68,2.14 
			71.93,52.77 		"/>
	</g>
	<g>
		
			<linearGradient id="SVGID_00000133510174934114005170000011913632994144197518_" gradientUnits="userSpaceOnUse" x1="18.4611" y1="42.9586" x2="56.6752" y2="42.9586">
			<stop  offset="0" style="stop-color:#4A9FE3"/>
			<stop  offset="0.999" style="stop-color:#BA00E9"/>
		</linearGradient>
		<polygon style="fill:url(#SVGID_00000133510174934114005170000011913632994144197518_);" points="31.94,83.92 18.46,83.92 
			43.15,2 56.68,2.14 		"/>
	</g>
</g>
</svg>
