<?xml version="1.0" encoding="utf-8"?>
<!-- Generator: Adobe Illustrator 26.4.1, SVG Export Plug-In . SVG Version: 6.00 Build 0)  -->
<svg version="1.1" id="레이어_1" xmlns="http://www.w3.org/2000/svg" xmlns:xlink="http://www.w3.org/1999/xlink" x="0px"
	 y="0px" viewBox="0 0 421 339.72" style="enable-background:new 0 0 421 339.72;" xml:space="preserve">
<style type="text/css">
	.st0{fill:#333333;}
	.st1{fill:url(#SVGID_1_);}
	.st2{fill:url(#SVGID_00000014626409539794990400000000282919317958762911_);}
	.st3{fill:url(#SVGID_00000021809544334988120240000002949561556077245875_);}
	.st4{fill:url(#SVGID_00000167387867007449747010000005618444494047658368_);}
</style>
<g>
	<path class="st0" d="M25.57,289.97H4.18v-27.95h8.3v6.71h4.8v-6.71h8.3v9.44h3.82v-9.77h8.51v33.51h-8.51v-15.12h-3.82V289.97z
		 M50.3,299.79v8.3H6.85v-14.96h9.39v6.66H50.3z M17.28,282.65v-6.77h-4.8v6.77H17.28z M49.75,296.03h-8.62v-34.55h8.62V296.03z"/>
	<path class="st0" d="M76.06,284.13l13.26,15.99l-7.15,5.68l-9.33-11.9c-3.77,7.64-9.72,11.95-16.7,12.01v-9.06
		c6.71-0.65,11.03-9.11,11.63-21.29H57.18v-8.51h10.53v-5.73h9.44v5.73h9.93v8.51H77.04C76.88,278.61,76.55,281.51,76.06,284.13z
		 M100.9,261.48v46.61h-9.22v-19.81h-7.81v-8.73h7.81v-18.07H100.9z"/>
	<path class="st0" d="M154.99,300.67h-18.83v8.51h-9.5v-8.51h-18.83v-8.3h47.16V300.67z M152.86,289.48h-42.3v-27.45h41.75v7.53
		h-32.64v2.67h31.88v7.04h-31.88v2.67h33.19V289.48z"/>
	<path class="st0" d="M180.15,282.71l13.32,17.58l-7.31,5.4l-9.17-12.61c-3.77,8.13-9.61,12.77-16.59,12.83v-9.28
		c6.82-0.76,11.3-10.64,11.63-25.6h-10.32v-8.46h29.36v8.46h-9.77C181.19,275.23,180.81,279.16,180.15,282.71z M209.3,287.46h-5.46
		v20.63h-9.22v-46.61h9.22v17.03h5.46V287.46z"/>
	<path class="st0" d="M259.46,281.56v7.1H212.3v-7.1h18.99v-3.98h9.17v3.98H259.46z M234.52,275.01
		c-5.13,2.84-12.44,4.48-20.09,4.58v-7.15c6.44-0.11,13.32-1.47,16.27-3.93h-15.72v-7.04h41.81v7.04H240.9
		c-0.11,0.27-0.22,0.55-0.38,0.82l17.47,3.6l-2.07,6.88L234.52,275.01z M257.28,299.52c0,6.71-8.79,9.22-21.4,9.22
		c-12.61,0-21.4-2.51-21.4-9.22c0-6.71,8.79-9.22,21.4-9.22C248.49,290.3,257.28,292.81,257.28,299.52z M247.45,299.52
		c0-1.64-4.75-2.35-11.57-2.35c-6.82,0-11.57,0.71-11.57,2.35c0,1.69,4.75,2.35,11.57,2.35
		C242.71,301.87,247.45,301.21,247.45,299.52z"/>
	<path class="st0" d="M295.98,270.86H264.1v-6.66h11.24v-3.55h9.39v3.55h11.24V270.86z M265.85,280.31c0-5.46,6.5-8.3,14.19-8.3
		c7.7,0,14.14,2.84,14.14,8.3c0,5.46-6.44,8.3-14.14,8.3C272.35,288.6,265.85,285.76,265.85,280.31z M299.36,289.48h8.95v18.61
		h-41.15v-18.61h8.95v2.62h23.25V289.48z M274.53,280.31c0,1.31,2.18,2.02,5.51,2.02c3.33,0,5.51-0.71,5.51-2.02
		c0-1.31-2.18-2.02-5.51-2.02C276.71,278.29,274.53,279,274.53,280.31z M299.36,301.21v-2.62h-23.25v2.62H299.36z M313.77,278.01
		h-5.46v9.82h-9.22v-26.36h9.22v7.91h5.46V278.01z"/>
	<path class="st0" d="M363.94,297.94v8.51h-47.16v-8.51h18.94v-7.31h-16.81v-8.41h7.1v-11.19h-6.6v-8.46h41.92v8.46h-6.6v11.19h7.1
		v8.41H345v7.31H363.94z M335.23,282.22h10.26v-11.19h-10.26V282.22z"/>
	<path class="st0" d="M389.26,284.78h-18.94v-22.76h27.62v6.39h-18.5v2.07h16.87v5.84h-16.87v2.07h10.42c4.2,0,8.3-0.49,10.75-1.36
		v6.28C398.16,284.29,393.63,284.78,389.26,284.78z M414.81,301.87v6.22h-42.14v-13.43h32.58v-1.64h-32.69v-6.17h41.75v13.32h-32.58
		v1.69H414.81z M405.09,275.56h-5.84v-7.53h5.84v-6.55h9.22v23.74h-9.22V275.56z"/>
</g>
<g>
	<path class="st0" d="M16.56,322.08l-5.15,13.53H9.68l-5.15-13.53h1.75l4.3,11.44l4.3-11.44H16.56z"/>
	<path class="st0" d="M16.02,330.78c0-2.91,1.82-5.07,4.36-5.07s4.35,2.16,4.35,5.07c0,0.22,0,0.47-0.03,0.71h-7.11
		c0.17,1.66,1.25,2.89,2.8,2.89c1.19,0,2.11-0.61,2.43-1.4h1.6c-0.47,1.67-2.04,2.87-4.03,2.87
		C17.84,335.85,16.02,333.69,16.02,330.78z M20.38,327.19c-1.57,0-2.63,1.22-2.8,2.89h5.61C23.01,328.38,21.94,327.19,20.38,327.19z
		"/>
	<path class="st0" d="M28.2,325.95v1.47c0.36-0.71,1.35-1.71,2.95-1.71c2.05,0,3.5,1.64,3.5,4.24v5.66h-1.57v-5.35
		c0-1.96-0.85-3.02-2.26-3.02c-1.52,0-2.61,1.59-2.61,3.38v5h-1.57v-9.66H28.2z"/>
	<path class="st0" d="M41.21,327.49h-1.93v8.12h-1.57v-8.12h-1.93v-1.54h1.93v-2.94h1.57v2.94h1.93V327.49z"/>
	<path class="st0" d="M48.99,335.61v-1.47c-0.36,0.71-1.35,1.71-2.95,1.71c-2.05,0-3.5-1.64-3.5-4.24v-5.66h1.56v5.35
		c0,1.96,0.85,3.02,2.26,3.02c1.52,0,2.61-1.59,2.61-3.38v-5h1.57v9.66H48.99z"/>
	<path class="st0" d="M54.51,325.95v1.49c0.38-0.73,1.43-1.72,3.13-1.72c0.53,0,0.88,0.05,1.19,0.17v1.66
		c-0.33-0.17-0.76-0.27-1.29-0.27c-1.78,0-3.02,1.59-3.02,3.34v5h-1.57v-9.66H54.51z"/>
	<path class="st0" d="M59.38,330.78c0-2.91,1.82-5.07,4.36-5.07s4.35,2.16,4.35,5.07c0,0.22,0,0.47-0.03,0.71h-7.11
		c0.17,1.66,1.25,2.89,2.8,2.89c1.19,0,2.11-0.61,2.43-1.4h1.6c-0.47,1.67-2.04,2.87-4.03,2.87
		C61.21,335.85,59.38,333.69,59.38,330.78z M63.75,327.19c-1.57,0-2.63,1.22-2.8,2.89h5.61C66.38,328.38,65.31,327.19,63.75,327.19z
		"/>
	<path class="st0" d="M75.86,335.61h-1.6v-13.53h1.6V335.61z"/>
	<path class="st0" d="M79.88,325.95v1.47c0.36-0.71,1.35-1.71,2.95-1.71c2.05,0,3.5,1.64,3.5,4.24v5.66h-1.57v-5.35
		c0-1.96-0.85-3.02-2.26-3.02c-1.52,0-2.61,1.59-2.61,3.38v5h-1.57v-9.66H79.88z"/>
	<path class="st0" d="M96.27,325.95l-3.68,9.66h-1.66l-3.66-9.66h1.7l2.84,7.69l2.84-7.69H96.27z"/>
	<path class="st0" d="M96.75,330.78c0-2.91,1.82-5.07,4.36-5.07s4.35,2.16,4.35,5.07c0,0.22,0,0.47-0.03,0.71h-7.11
		c0.17,1.66,1.25,2.89,2.8,2.89c1.19,0,2.11-0.61,2.43-1.4h1.6c-0.47,1.67-2.04,2.87-4.03,2.87
		C98.57,335.85,96.75,333.69,96.75,330.78z M101.11,327.19c-1.57,0-2.63,1.22-2.8,2.89h5.61
		C103.74,328.38,102.68,327.19,101.11,327.19z"/>
	<path class="st0" d="M114.59,328.52h-1.53c-0.06-0.81-1.05-1.39-2.31-1.39c-1.26,0-2.17,0.56-2.17,1.28c0,0.79,0.55,1.28,2.67,1.6
		c2.61,0.39,3.54,1.33,3.54,2.84c0,1.88-1.78,2.99-3.94,2.99c-2.33,0-3.81-1.25-3.92-2.94h1.53c0.09,0.76,0.88,1.52,2.43,1.52
		c1.34,0,2.36-0.61,2.36-1.47c0-0.79-0.67-1.25-2.75-1.55c-2.37-0.35-3.47-1.2-3.47-2.89c0-1.71,1.63-2.8,3.75-2.8
		C112.92,325.72,114.52,326.88,114.59,328.52z"/>
	<path class="st0" d="M121.16,327.49h-1.93v8.12h-1.57v-8.12h-1.93v-1.54h1.93v-2.94h1.57v2.94h1.93V327.49z"/>
	<path class="st0" d="M124.26,325.95v1.37c0.4-0.71,1.17-1.6,2.63-1.6c1.29,0,2.28,0.79,2.71,2.03c0.52-1.22,1.61-2.03,3.08-2.03
		c1.85,0,3.19,1.57,3.19,4.02v5.88h-1.57v-5.59c0-1.74-0.76-2.79-1.99-2.79c-1.31,0-2.25,1.42-2.25,3.18v5.2h-1.57v-5.52
		c0-1.81-0.78-2.85-1.99-2.85c-1.29,0-2.25,1.42-2.25,3.16v5.22h-1.57v-9.66H124.26z"/>
	<path class="st0" d="M137.57,330.78c0-2.91,1.82-5.07,4.36-5.07s4.35,2.16,4.35,5.07c0,0.22,0,0.47-0.03,0.71h-7.11
		c0.17,1.66,1.25,2.89,2.8,2.89c1.19,0,2.11-0.61,2.43-1.4h1.6c-0.47,1.67-2.04,2.87-4.03,2.87
		C139.39,335.85,137.57,333.69,137.57,330.78z M141.93,327.19c-1.57,0-2.63,1.22-2.8,2.89h5.61
		C144.56,328.38,143.49,327.19,141.93,327.19z"/>
	<path class="st0" d="M149.75,325.95v1.47c0.36-0.71,1.35-1.71,2.95-1.71c2.05,0,3.5,1.64,3.5,4.24v5.66h-1.57v-5.35
		c0-1.96-0.85-3.02-2.26-3.02c-1.52,0-2.61,1.59-2.61,3.38v5h-1.57v-9.66H149.75z"/>
	<path class="st0" d="M162.76,327.49h-1.93v8.12h-1.57v-8.12h-1.93v-1.54h1.93v-2.94h1.57v2.94h1.93V327.49z"/>
	<path class="st0" d="M168.02,328.84c0-4.09,2.71-7.08,6.38-7.08c3.15,0,5.32,2.03,5.96,4.86h-1.63c-0.52-1.91-2.08-3.23-4.3-3.23
		c-2.8,0-4.82,2.26-4.82,5.44c0,3.16,2.04,5.44,4.82,5.44c2.28,0,3.98-1.49,4.42-3.41h1.63c-0.53,2.82-2.86,5.05-6.08,5.05
		C170.72,335.92,168.02,332.93,168.02,328.84z"/>
	<path class="st0" d="M190.8,330.78c0,2.91-1.87,5.07-4.44,5.07c-2.58,0-4.45-2.16-4.45-5.07c0-2.91,1.87-5.07,4.45-5.07
		C188.93,325.72,190.8,327.88,190.8,330.78z M183.44,330.78c0,2.01,1.19,3.53,2.92,3.53c1.72,0,2.9-1.52,2.9-3.53
		c0-2.01-1.19-3.53-2.9-3.53C184.63,327.25,183.44,328.77,183.44,330.78z"/>
	<path class="st0" d="M194.29,325.95v1.37c0.4-0.71,1.17-1.6,2.63-1.6c1.29,0,2.28,0.79,2.71,2.03c0.52-1.22,1.61-2.03,3.08-2.03
		c1.85,0,3.19,1.57,3.19,4.02v5.88h-1.56v-5.59c0-1.74-0.76-2.79-1.99-2.79c-1.31,0-2.25,1.42-2.25,3.18v5.2h-1.57v-5.52
		c0-1.81-0.77-2.85-1.99-2.85c-1.29,0-2.25,1.42-2.25,3.16v5.22h-1.57v-9.66H194.29z"/>
	<path class="st0" d="M209.63,334.18v5.54h-1.57v-13.77h1.57v1.44c0.44-0.83,1.5-1.67,3.08-1.67c2.46,0,4.3,2.18,4.3,5.07
		c0,2.89-1.84,5.07-4.3,5.07C211.13,335.85,210.07,335.01,209.63,334.18z M215.48,330.78c0-2.01-1.15-3.53-2.9-3.53
		c-1.76,0-2.98,1.52-2.98,3.53c0,2.01,1.22,3.53,2.98,3.53C214.32,334.31,215.48,332.79,215.48,330.78z"/>
	<path class="st0" d="M220.51,325.95v1.49c0.38-0.73,1.43-1.72,3.13-1.72c0.53,0,0.88,0.05,1.19,0.17v1.66
		c-0.33-0.17-0.76-0.27-1.29-0.27c-1.78,0-3.02,1.59-3.02,3.34v5h-1.57v-9.66H220.51z"/>
	<path class="st0" d="M225.38,330.78c0-2.91,1.82-5.07,4.36-5.07s4.35,2.16,4.35,5.07c0,0.22,0,0.47-0.03,0.71h-7.11
		c0.17,1.66,1.25,2.89,2.8,2.89c1.19,0,2.11-0.61,2.43-1.4h1.6c-0.47,1.67-2.04,2.87-4.03,2.87
		C227.21,335.85,225.38,333.69,225.38,330.78z M229.75,327.19c-1.57,0-2.63,1.22-2.8,2.89h5.61
		C232.37,328.38,231.31,327.19,229.75,327.19z"/>
	<path class="st0" d="M237.57,321.66v5.76c0.37-0.71,1.35-1.71,2.95-1.71c2.05,0,3.5,1.64,3.5,4.24v5.66h-1.57v-5.35
		c0-1.96-0.85-3.02-2.26-3.02c-1.52,0-2.61,1.59-2.61,3.38v5h-1.57v-13.95H237.57z"/>
	<path class="st0" d="M245.75,330.78c0-2.91,1.82-5.07,4.36-5.07s4.35,2.16,4.35,5.07c0,0.22,0,0.47-0.03,0.71h-7.11
		c0.17,1.66,1.25,2.89,2.8,2.89c1.19,0,2.11-0.61,2.43-1.4h1.6c-0.47,1.67-2.04,2.87-4.03,2.87
		C247.57,335.85,245.75,333.69,245.75,330.78z M250.11,327.19c-1.57,0-2.63,1.22-2.8,2.89h5.61
		C252.74,328.38,251.67,327.19,250.11,327.19z"/>
	<path class="st0" d="M257.93,325.95v1.47c0.36-0.71,1.35-1.71,2.95-1.71c2.05,0,3.5,1.64,3.5,4.24v5.66h-1.57v-5.35
		c0-1.96-0.85-3.02-2.26-3.02c-1.52,0-2.61,1.59-2.61,3.38v5h-1.57v-9.66H257.93z"/>
	<path class="st0" d="M273.74,328.52h-1.54c-0.06-0.81-1.05-1.39-2.31-1.39c-1.26,0-2.17,0.56-2.17,1.28c0,0.79,0.55,1.28,2.67,1.6
		c2.61,0.39,3.54,1.33,3.54,2.84c0,1.88-1.78,2.99-3.94,2.99c-2.33,0-3.82-1.25-3.92-2.94h1.53c0.09,0.76,0.88,1.52,2.43,1.52
		c1.34,0,2.36-0.61,2.36-1.47c0-0.79-0.67-1.25-2.75-1.55c-2.37-0.35-3.47-1.2-3.47-2.89c0-1.71,1.63-2.8,3.75-2.8
		C272.07,325.72,273.66,326.88,273.74,328.52z"/>
	<path class="st0" d="M277.66,322.64c0,0.66-0.44,1.15-1.05,1.15c-0.59,0-1.03-0.49-1.03-1.15s0.44-1.15,1.03-1.15
		C277.22,321.49,277.66,321.98,277.66,322.64z M275.83,335.63v-9.68h1.57v9.68H275.83z"/>
	<path class="st0" d="M287.92,325.95l-3.68,9.66h-1.66l-3.66-9.66h1.7l2.84,7.69l2.84-7.69H287.92z"/>
	<path class="st0" d="M288.4,330.78c0-2.91,1.82-5.07,4.36-5.07s4.35,2.16,4.35,5.07c0,0.22,0,0.47-0.03,0.71h-7.11
		c0.17,1.66,1.25,2.89,2.8,2.89c1.19,0,2.11-0.61,2.43-1.4h1.6c-0.47,1.67-2.04,2.87-4.03,2.87
		C290.23,335.85,288.4,333.69,288.4,330.78z M292.76,327.19c-1.57,0-2.63,1.22-2.8,2.89h5.61
		C295.39,328.38,294.33,327.19,292.76,327.19z"/>
	<path class="st0" d="M304.77,334.18v5.54h-1.57v-13.77h1.57v1.44c0.44-0.83,1.5-1.67,3.08-1.67c2.46,0,4.3,2.18,4.3,5.07
		c0,2.89-1.84,5.07-4.3,5.07C306.27,335.85,305.21,335.01,304.77,334.18z M310.62,330.78c0-2.01-1.16-3.53-2.9-3.53
		c-1.76,0-2.98,1.52-2.98,3.53c0,2.01,1.22,3.53,2.98,3.53C309.46,334.31,310.62,332.79,310.62,330.78z"/>
	<path class="st0" d="M322.52,330.78c0,2.91-1.87,5.07-4.44,5.07c-2.58,0-4.45-2.16-4.45-5.07c0-2.91,1.87-5.07,4.45-5.07
		C320.65,325.72,322.52,327.88,322.52,330.78z M315.16,330.78c0,2.01,1.19,3.53,2.92,3.53c1.72,0,2.9-1.52,2.9-3.53
		c0-2.01-1.19-3.53-2.9-3.53C316.35,327.25,315.16,328.77,315.16,330.78z"/>
	<path class="st0" d="M326.01,325.95v1.49c0.38-0.73,1.43-1.72,3.13-1.72c0.53,0,0.88,0.05,1.19,0.17v1.66
		c-0.33-0.17-0.76-0.27-1.29-0.27c-1.78,0-3.02,1.59-3.02,3.34v5h-1.57v-9.66H326.01z"/>
	<path class="st0" d="M336.62,327.49h-1.93v8.12h-1.57v-8.12h-1.93v-1.54h1.93v-2.94h1.57v2.94h1.93V327.49z"/>
	<path class="st0" d="M337.41,330.78c0-2.89,1.84-5.07,4.3-5.07c1.58,0,2.64,0.84,3.08,1.67v-1.44h1.57v9.66h-1.57v-1.44
		c-0.44,0.83-1.5,1.67-3.08,1.67C339.25,335.85,337.41,333.67,337.41,330.78z M344.82,330.78c0-2.01-1.22-3.53-2.98-3.53
		c-1.75,0-2.9,1.52-2.9,3.53c0,2.01,1.16,3.53,2.9,3.53C343.61,334.31,344.82,332.79,344.82,330.78z"/>
	<path class="st0" d="M348.74,335.61v-13.95h1.57v13.95H348.74z"/>
	<path class="st0" d="M366.23,325.82h-1.64c-0.17-1.44-1.34-2.53-3.24-2.53c-1.92,0-2.99,0.88-2.99,2.09c0,1.4,1.12,2.01,3.72,2.62
		c2.99,0.71,4.19,1.99,4.19,4c0,2.43-2.14,3.92-4.85,3.92c-2.84,0-4.89-1.72-5.06-4.34h1.64c0.17,1.64,1.49,2.8,3.53,2.8
		c1.82,0,3.12-0.93,3.12-2.28c0-1.5-1.11-2.11-3.75-2.74c-2.75-0.64-4.15-1.74-4.15-3.99s1.99-3.61,4.68-3.61
		C364.11,321.76,366.08,323.45,366.23,325.82z"/>
	<path class="st0" d="M367.69,330.78c0-2.91,1.82-5.07,4.36-5.07c2.54,0,4.35,2.16,4.35,5.07c0,0.22,0,0.47-0.03,0.71h-7.11
		c0.17,1.66,1.25,2.89,2.8,2.89c1.19,0,2.11-0.61,2.43-1.4h1.6c-0.47,1.67-2.04,2.87-4.03,2.87
		C369.52,335.85,367.69,333.69,367.69,330.78z M372.05,327.19c-1.57,0-2.63,1.22-2.8,2.89h5.61
		C374.68,328.38,373.62,327.19,372.05,327.19z"/>
	<path class="st0" d="M379.88,325.95v1.49c0.38-0.73,1.43-1.72,3.13-1.72c0.53,0,0.88,0.05,1.19,0.17v1.66
		c-0.33-0.17-0.76-0.27-1.29-0.27c-1.78,0-3.02,1.59-3.02,3.34v5h-1.57v-9.66H379.88z"/>
	<path class="st0" d="M393.95,325.95l-3.68,9.66h-1.66l-3.66-9.66h1.7l2.84,7.69l2.84-7.69H393.95z"/>
	<path class="st0" d="M397.29,322.64c0,0.66-0.44,1.15-1.05,1.15c-0.59,0-1.03-0.49-1.03-1.15s0.44-1.15,1.03-1.15
		C396.85,321.49,397.29,321.98,397.29,322.64z M395.47,335.63v-9.68h1.57v9.68H395.47z"/>
	<path class="st0" d="M403.43,335.85c-2.58,0-4.47-2.16-4.47-5.07c0-2.91,1.87-5.07,4.44-5.07c2.05,0,3.66,1.47,4.09,3.48h-1.6
		c-0.35-1.15-1.26-1.94-2.49-1.94c-1.73,0-2.9,1.52-2.9,3.53c0,2.01,1.17,3.53,2.9,3.53c1.23,0,2.17-0.81,2.52-1.98h1.6
		C407.05,334.43,405.46,335.85,403.43,335.85z"/>
	<path class="st0" d="M408.9,330.78c0-2.91,1.82-5.07,4.36-5.07s4.35,2.16,4.35,5.07c0,0.22,0,0.47-0.03,0.71h-7.11
		c0.17,1.66,1.25,2.89,2.8,2.89c1.19,0,2.11-0.61,2.43-1.4h1.6c-0.47,1.67-2.04,2.87-4.03,2.87
		C410.73,335.85,408.9,333.69,408.9,330.78z M413.27,327.19c-1.57,0-2.63,1.22-2.8,2.89h5.61
		C415.9,328.38,414.83,327.19,413.27,327.19z"/>
</g>
<g>
	<g>
		<linearGradient id="SVGID_1_" gradientUnits="userSpaceOnUse" x1="252.8054" y1="92.897" x2="316.4026" y2="92.897">
			<stop  offset="0" style="stop-color:#1D00E3"/>
			<stop  offset="0.999" style="stop-color:#FF84B5"/>
		</linearGradient>
		<polygon class="st1" points="288.82,138.49 252.81,138.49 273.2,70.82 316.4,47.31 		"/>
	</g>
	<g>
		
			<linearGradient id="SVGID_00000070094682349548273220000010466497169236281484_" gradientUnits="userSpaceOnUse" x1="105.1703" y1="131.7813" x2="182.0706" y2="131.7813">
			<stop  offset="0" style="stop-color:#E4A0FF"/>
			<stop  offset="0.9971" style="stop-color:#C442D1"/>
		</linearGradient>
		<polygon style="fill:url(#SVGID_00000070094682349548273220000010466497169236281484_);" points="146.01,221.87 105.17,86.38 
			127.68,41.54 182.07,222.02 		"/>
	</g>
	<g>
		
			<linearGradient id="SVGID_00000013170020237399773560000008812213396732489622_" gradientUnits="userSpaceOnUse" x1="211.9702" y1="70.8194" x2="288.8705" y2="70.8194">
			<stop  offset="0" style="stop-color:#E4A0FF"/>
			<stop  offset="0.9971" style="stop-color:#C442D1"/>
		</linearGradient>
		<polygon style="fill:url(#SVGID_00000013170020237399773560000008812213396732489622_);" points="252.81,138.49 211.97,3 
			248.11,3.39 288.87,138.64 		"/>
	</g>
	<g>
		
			<linearGradient id="SVGID_00000011718347344465985180000014618413801426379160_" gradientUnits="userSpaceOnUse" x1="146.0055" y1="112.4328" x2="248.1057" y2="112.4328">
			<stop  offset="0" style="stop-color:#4A9FE3"/>
			<stop  offset="0.999" style="stop-color:#BA00E9"/>
		</linearGradient>
		<polygon style="fill:url(#SVGID_00000011718347344465985180000014618413801426379160_);" points="182.02,221.87 146.01,221.87 
			211.97,3 248.11,3.39 		"/>
	</g>
</g>
</svg>
