<?xml version="1.0" encoding="utf-8"?>
<!-- Generator: Adobe Illustrator 26.4.1, SVG Export Plug-In . SVG Version: 6.00 Build 0)  -->
<svg version="1.1" id="레이어_1" xmlns="http://www.w3.org/2000/svg" xmlns:xlink="http://www.w3.org/1999/xlink" x="0px"
	 y="0px" viewBox="0 0 420 338.72" style="enable-background:new 0 0 420 338.72;" xml:space="preserve">
<style type="text/css">
	.st0{fill:#323333;}
	.st1{fill:url(#SVGID_1_);}
	.st2{fill:url(#SVGID_00000179617738003357847850000005692956466921044380_);}
	.st3{fill:url(#SVGID_00000111897569223392585780000012266690303379685543_);}
	.st4{fill:url(#SVGID_00000101093352750237780910000006403521911777783702_);}
</style>
<g>
	<path class="st0" d="M24.64,288.97H3.25v-27.95h8.3v6.71h4.8v-6.71h8.3v9.44h3.82v-9.77h8.51v33.51h-8.51v-15.12h-3.82V288.97z
		 M49.37,298.79v8.3H5.92v-14.96h9.39v6.66H49.37z M16.35,281.65v-6.77h-4.8v6.77H16.35z M48.82,295.03H40.2v-34.55h8.62V295.03z"/>
	<path class="st0" d="M75.13,283.13l13.26,15.99l-7.15,5.68l-9.33-11.9c-3.77,7.64-9.72,11.95-16.7,12.01v-9.06
		c6.71-0.65,11.03-9.11,11.63-21.29H56.25v-8.51h10.53v-5.73h9.44v5.73h9.93v8.51H76.12C75.95,277.61,75.62,280.51,75.13,283.13z
		 M99.97,260.48v46.61h-9.22v-19.81h-7.81v-8.73h7.81v-18.07H99.97z"/>
	<path class="st0" d="M154.06,299.67h-18.83v8.51h-9.5v-8.51H106.9v-8.3h47.16V299.67z M151.93,288.48h-42.3v-27.45h41.75v7.53
		h-32.64v2.67h31.88v7.04h-31.88v2.67h33.19V288.48z"/>
	<path class="st0" d="M179.22,281.71l13.32,17.58l-7.31,5.4l-9.17-12.61c-3.77,8.13-9.61,12.77-16.59,12.83v-9.28
		c6.82-0.76,11.3-10.64,11.63-25.6h-10.32v-8.46h29.36v8.46h-9.77C180.26,274.23,179.88,278.16,179.22,281.71z M208.37,286.46h-5.46
		v20.63h-9.22v-46.61h9.22v17.03h5.46V286.46z"/>
	<path class="st0" d="M258.53,280.56v7.1h-47.16v-7.1h18.99v-3.98h9.17v3.98H258.53z M233.59,274.01
		c-5.13,2.84-12.44,4.48-20.09,4.58v-7.15c6.44-0.11,13.32-1.47,16.27-3.93h-15.72v-7.04h41.81v7.04h-15.88
		c-0.11,0.27-0.22,0.55-0.38,0.82l17.47,3.6l-2.07,6.88L233.59,274.01z M256.35,298.52c0,6.71-8.79,9.22-21.4,9.22
		c-12.61,0-21.4-2.51-21.4-9.22c0-6.71,8.79-9.22,21.4-9.22C247.56,289.3,256.35,291.81,256.35,298.52z M246.53,298.52
		c0-1.64-4.75-2.35-11.57-2.35c-6.82,0-11.57,0.71-11.57,2.35c0,1.69,4.75,2.35,11.57,2.35
		C241.78,300.87,246.53,300.21,246.53,298.52z"/>
	<path class="st0" d="M295.05,269.86h-31.88v-6.66h11.24v-3.55h9.39v3.55h11.24V269.86z M264.92,279.31c0-5.46,6.5-8.3,14.19-8.3
		c7.7,0,14.14,2.84,14.14,8.3c0,5.46-6.44,8.3-14.14,8.3C271.42,287.6,264.92,284.76,264.92,279.31z M298.44,288.48h8.95v18.61
		h-41.15v-18.61h8.95v2.62h23.25V288.48z M273.6,279.31c0,1.31,2.18,2.02,5.51,2.02c3.33,0,5.51-0.71,5.51-2.02
		c0-1.31-2.18-2.02-5.51-2.02C275.78,277.29,273.6,278,273.6,279.31z M298.44,300.21v-2.62h-23.25v2.62H298.44z M312.84,277.01
		h-5.46v9.82h-9.22v-26.36h9.22v7.91h5.46V277.01z"/>
	<path class="st0" d="M363.01,296.94v8.51h-47.16v-8.51h18.94v-7.31h-16.81v-8.41h7.1v-11.19h-6.6v-8.46h41.92v8.46h-6.6v11.19h7.1
		v8.41h-16.81v7.31H363.01z M334.3,281.22h10.26v-11.19H334.3V281.22z"/>
	<path class="st0" d="M388.34,283.78H369.4v-22.76h27.62v6.39h-18.5v2.07h16.87v5.84h-16.87v2.07h10.42c4.2,0,8.3-0.49,10.75-1.36
		v6.28C397.23,283.29,392.7,283.78,388.34,283.78z M413.88,300.87v6.22h-42.14v-13.43h32.58v-1.64h-32.69v-6.17h41.75v13.32H380.8
		v1.69H413.88z M404.16,274.56h-5.84v-7.53h5.84v-6.55h9.22v23.74h-9.22V274.56z"/>
</g>
<g>
	<path class="st0" d="M15.64,321.08l-5.15,13.53H8.75L3.6,321.08h1.75l4.3,11.44l4.3-11.44H15.64z"/>
	<path class="st0" d="M15.09,329.78c0-2.91,1.82-5.07,4.36-5.07s4.35,2.16,4.35,5.07c0,0.22,0,0.47-0.03,0.71h-7.11
		c0.17,1.66,1.25,2.89,2.8,2.89c1.19,0,2.11-0.61,2.43-1.4h1.6c-0.47,1.67-2.04,2.87-4.03,2.87
		C16.91,334.85,15.09,332.69,15.09,329.78z M19.45,326.19c-1.57,0-2.63,1.22-2.8,2.89h5.61C22.08,327.38,21.01,326.19,19.45,326.19z
		"/>
	<path class="st0" d="M27.27,324.95v1.47c0.36-0.71,1.35-1.71,2.95-1.71c2.05,0,3.5,1.64,3.5,4.24v5.66h-1.57v-5.35
		c0-1.96-0.85-3.02-2.26-3.02c-1.52,0-2.61,1.59-2.61,3.38v5h-1.57v-9.66H27.27z"/>
	<path class="st0" d="M40.28,326.49h-1.93v8.12h-1.57v-8.12h-1.93v-1.54h1.93v-2.94h1.57v2.94h1.93V326.49z"/>
	<path class="st0" d="M48.06,334.61v-1.47c-0.36,0.71-1.35,1.71-2.95,1.71c-2.05,0-3.5-1.64-3.5-4.24v-5.66h1.56v5.35
		c0,1.96,0.85,3.02,2.26,3.02c1.52,0,2.61-1.59,2.61-3.38v-5h1.57v9.66H48.06z"/>
	<path class="st0" d="M53.58,324.95v1.49c0.38-0.73,1.43-1.72,3.13-1.72c0.53,0,0.88,0.05,1.19,0.17v1.66
		c-0.33-0.17-0.76-0.27-1.29-0.27c-1.78,0-3.02,1.59-3.02,3.34v5h-1.57v-9.66H53.58z"/>
	<path class="st0" d="M58.46,329.78c0-2.91,1.82-5.07,4.36-5.07s4.35,2.16,4.35,5.07c0,0.22,0,0.47-0.03,0.71h-7.11
		c0.17,1.66,1.25,2.89,2.8,2.89c1.19,0,2.11-0.61,2.43-1.4h1.6c-0.47,1.67-2.04,2.87-4.03,2.87
		C60.28,334.85,58.46,332.69,58.46,329.78z M62.82,326.19c-1.57,0-2.63,1.22-2.8,2.89h5.61C65.45,327.38,64.38,326.19,62.82,326.19z
		"/>
	<path class="st0" d="M74.93,334.61h-1.6v-13.53h1.6V334.61z"/>
	<path class="st0" d="M78.96,324.95v1.47c0.36-0.71,1.35-1.71,2.95-1.71c2.05,0,3.5,1.64,3.5,4.24v5.66h-1.57v-5.35
		c0-1.96-0.85-3.02-2.26-3.02c-1.52,0-2.61,1.59-2.61,3.38v5h-1.57v-9.66H78.96z"/>
	<path class="st0" d="M95.34,324.95l-3.68,9.66H90l-3.66-9.66h1.7l2.84,7.69l2.84-7.69H95.34z"/>
	<path class="st0" d="M95.82,329.78c0-2.91,1.82-5.07,4.36-5.07s4.35,2.16,4.35,5.07c0,0.22,0,0.47-0.03,0.71h-7.11
		c0.17,1.66,1.25,2.89,2.8,2.89c1.19,0,2.11-0.61,2.43-1.4h1.6c-0.47,1.67-2.04,2.87-4.03,2.87
		C97.65,334.85,95.82,332.69,95.82,329.78z M100.18,326.19c-1.57,0-2.63,1.22-2.8,2.89H103
		C102.81,327.38,101.75,326.19,100.18,326.19z"/>
	<path class="st0" d="M113.66,327.52h-1.53c-0.06-0.81-1.05-1.39-2.31-1.39c-1.26,0-2.17,0.56-2.17,1.28c0,0.79,0.55,1.28,2.67,1.6
		c2.61,0.39,3.54,1.33,3.54,2.84c0,1.88-1.78,2.99-3.94,2.99c-2.33,0-3.81-1.25-3.92-2.94h1.53c0.09,0.76,0.88,1.52,2.43,1.52
		c1.34,0,2.36-0.61,2.36-1.47c0-0.79-0.67-1.25-2.75-1.55c-2.37-0.35-3.47-1.2-3.47-2.89c0-1.71,1.63-2.8,3.75-2.8
		C111.99,324.72,113.59,325.88,113.66,327.52z"/>
	<path class="st0" d="M120.23,326.49h-1.93v8.12h-1.57v-8.12h-1.93v-1.54h1.93v-2.94h1.57v2.94h1.93V326.49z"/>
	<path class="st0" d="M123.33,324.95v1.37c0.4-0.71,1.17-1.6,2.63-1.6c1.29,0,2.28,0.79,2.71,2.03c0.52-1.22,1.61-2.03,3.08-2.03
		c1.85,0,3.19,1.57,3.19,4.02v5.88h-1.57v-5.59c0-1.74-0.76-2.79-1.99-2.79c-1.31,0-2.25,1.42-2.25,3.18v5.2h-1.57v-5.52
		c0-1.81-0.78-2.85-1.99-2.85c-1.29,0-2.25,1.42-2.25,3.16v5.22h-1.57v-9.66H123.33z"/>
	<path class="st0" d="M136.64,329.78c0-2.91,1.82-5.07,4.36-5.07s4.35,2.16,4.35,5.07c0,0.22,0,0.47-0.03,0.71h-7.11
		c0.17,1.66,1.25,2.89,2.8,2.89c1.19,0,2.11-0.61,2.43-1.4h1.6c-0.47,1.67-2.04,2.87-4.03,2.87
		C138.46,334.85,136.64,332.69,136.64,329.78z M141,326.19c-1.57,0-2.63,1.22-2.8,2.89h5.61C143.63,327.38,142.57,326.19,141,326.19
		z"/>
	<path class="st0" d="M148.83,324.95v1.47c0.36-0.71,1.35-1.71,2.95-1.71c2.05,0,3.5,1.64,3.5,4.24v5.66h-1.57v-5.35
		c0-1.96-0.85-3.02-2.26-3.02c-1.52,0-2.61,1.59-2.61,3.38v5h-1.57v-9.66H148.83z"/>
	<path class="st0" d="M161.83,326.49h-1.93v8.12h-1.57v-8.12h-1.93v-1.54h1.93v-2.94h1.57v2.94h1.93V326.49z"/>
	<path class="st0" d="M167.09,327.84c0-4.09,2.71-7.08,6.38-7.08c3.15,0,5.32,2.03,5.96,4.86h-1.63c-0.52-1.91-2.08-3.23-4.3-3.23
		c-2.8,0-4.82,2.26-4.82,5.44c0,3.16,2.04,5.44,4.82,5.44c2.28,0,3.98-1.49,4.42-3.41h1.63c-0.53,2.82-2.86,5.05-6.08,5.05
		C169.8,334.92,167.09,331.93,167.09,327.84z"/>
	<path class="st0" d="M189.87,329.78c0,2.91-1.87,5.07-4.44,5.07c-2.58,0-4.45-2.16-4.45-5.07c0-2.91,1.87-5.07,4.45-5.07
		C188,324.72,189.87,326.88,189.87,329.78z M182.51,329.78c0,2.01,1.19,3.53,2.92,3.53c1.72,0,2.9-1.52,2.9-3.53
		c0-2.01-1.19-3.53-2.9-3.53C183.7,326.25,182.51,327.77,182.51,329.78z"/>
	<path class="st0" d="M193.36,324.95v1.37c0.4-0.71,1.17-1.6,2.63-1.6c1.29,0,2.28,0.79,2.71,2.03c0.52-1.22,1.61-2.03,3.08-2.03
		c1.85,0,3.19,1.57,3.19,4.02v5.88h-1.56v-5.59c0-1.74-0.76-2.79-1.99-2.79c-1.31,0-2.25,1.42-2.25,3.18v5.2h-1.57v-5.52
		c0-1.81-0.77-2.85-1.99-2.85c-1.29,0-2.25,1.42-2.25,3.16v5.22h-1.57v-9.66H193.36z"/>
	<path class="st0" d="M208.7,333.18v5.54h-1.57v-13.77h1.57v1.44c0.44-0.83,1.5-1.67,3.08-1.67c2.46,0,4.3,2.18,4.3,5.07
		c0,2.89-1.84,5.07-4.3,5.07C210.2,334.85,209.14,334.01,208.7,333.18z M214.55,329.78c0-2.01-1.15-3.53-2.9-3.53
		c-1.76,0-2.98,1.52-2.98,3.53c0,2.01,1.22,3.53,2.98,3.53C213.39,333.31,214.55,331.79,214.55,329.78z"/>
	<path class="st0" d="M219.58,324.95v1.49c0.38-0.73,1.43-1.72,3.13-1.72c0.53,0,0.88,0.05,1.19,0.17v1.66
		c-0.33-0.17-0.76-0.27-1.29-0.27c-1.78,0-3.02,1.59-3.02,3.34v5h-1.57v-9.66H219.58z"/>
	<path class="st0" d="M224.45,329.78c0-2.91,1.82-5.07,4.36-5.07s4.35,2.16,4.35,5.07c0,0.22,0,0.47-0.03,0.71h-7.11
		c0.17,1.66,1.25,2.89,2.8,2.89c1.19,0,2.11-0.61,2.43-1.4h1.6c-0.47,1.67-2.04,2.87-4.03,2.87
		C226.28,334.85,224.45,332.69,224.45,329.78z M228.82,326.19c-1.57,0-2.63,1.22-2.8,2.89h5.61
		C231.45,327.38,230.38,326.19,228.82,326.19z"/>
	<path class="st0" d="M236.64,320.66v5.76c0.37-0.71,1.35-1.71,2.95-1.71c2.05,0,3.5,1.64,3.5,4.24v5.66h-1.57v-5.35
		c0-1.96-0.85-3.02-2.26-3.02c-1.52,0-2.61,1.59-2.61,3.38v5h-1.57v-13.95H236.64z"/>
	<path class="st0" d="M244.82,329.78c0-2.91,1.82-5.07,4.36-5.07s4.35,2.16,4.35,5.07c0,0.22,0,0.47-0.03,0.71h-7.11
		c0.17,1.66,1.25,2.89,2.8,2.89c1.19,0,2.11-0.61,2.43-1.4h1.6c-0.47,1.67-2.04,2.87-4.03,2.87
		C246.64,334.85,244.82,332.69,244.82,329.78z M249.18,326.19c-1.57,0-2.63,1.22-2.8,2.89h5.61
		C251.81,327.38,250.74,326.19,249.18,326.19z"/>
	<path class="st0" d="M257.01,324.95v1.47c0.36-0.71,1.35-1.71,2.95-1.71c2.05,0,3.5,1.64,3.5,4.24v5.66h-1.57v-5.35
		c0-1.96-0.85-3.02-2.26-3.02c-1.52,0-2.61,1.59-2.61,3.38v5h-1.57v-9.66H257.01z"/>
	<path class="st0" d="M272.81,327.52h-1.54c-0.06-0.81-1.05-1.39-2.31-1.39c-1.26,0-2.17,0.56-2.17,1.28c0,0.79,0.55,1.28,2.67,1.6
		c2.61,0.39,3.54,1.33,3.54,2.84c0,1.88-1.78,2.99-3.94,2.99c-2.33,0-3.82-1.25-3.92-2.94h1.53c0.09,0.76,0.88,1.52,2.43,1.52
		c1.34,0,2.36-0.61,2.36-1.47c0-0.79-0.67-1.25-2.75-1.55c-2.37-0.35-3.47-1.2-3.47-2.89c0-1.71,1.63-2.8,3.75-2.8
		C271.14,324.72,272.73,325.88,272.81,327.52z"/>
	<path class="st0" d="M276.73,321.64c0,0.66-0.44,1.15-1.05,1.15c-0.59,0-1.03-0.49-1.03-1.15s0.44-1.15,1.03-1.15
		C276.29,320.49,276.73,320.98,276.73,321.64z M274.91,334.63v-9.68h1.57v9.68H274.91z"/>
	<path class="st0" d="M286.99,324.95l-3.68,9.66h-1.66l-3.66-9.66h1.7l2.84,7.69l2.84-7.69H286.99z"/>
	<path class="st0" d="M287.47,329.78c0-2.91,1.82-5.07,4.36-5.07s4.35,2.16,4.35,5.07c0,0.22,0,0.47-0.03,0.71h-7.11
		c0.17,1.66,1.25,2.89,2.8,2.89c1.19,0,2.11-0.61,2.43-1.4h1.6c-0.47,1.67-2.04,2.87-4.03,2.87
		C289.3,334.85,287.47,332.69,287.47,329.78z M291.83,326.19c-1.57,0-2.63,1.22-2.8,2.89h5.61
		C294.46,327.38,293.4,326.19,291.83,326.19z"/>
	<path class="st0" d="M303.84,333.18v5.54h-1.57v-13.77h1.57v1.44c0.44-0.83,1.5-1.67,3.08-1.67c2.46,0,4.3,2.18,4.3,5.07
		c0,2.89-1.84,5.07-4.3,5.07C305.34,334.85,304.28,334.01,303.84,333.18z M309.69,329.78c0-2.01-1.16-3.53-2.9-3.53
		c-1.76,0-2.98,1.52-2.98,3.53c0,2.01,1.22,3.53,2.98,3.53C308.53,333.31,309.69,331.79,309.69,329.78z"/>
	<path class="st0" d="M321.59,329.78c0,2.91-1.87,5.07-4.44,5.07c-2.58,0-4.45-2.16-4.45-5.07c0-2.91,1.87-5.07,4.45-5.07
		C319.72,324.72,321.59,326.88,321.59,329.78z M314.23,329.78c0,2.01,1.19,3.53,2.92,3.53c1.72,0,2.9-1.52,2.9-3.53
		c0-2.01-1.19-3.53-2.9-3.53C315.42,326.25,314.23,327.77,314.23,329.78z"/>
	<path class="st0" d="M325.08,324.95v1.49c0.38-0.73,1.43-1.72,3.13-1.72c0.53,0,0.88,0.05,1.19,0.17v1.66
		c-0.33-0.17-0.76-0.27-1.29-0.27c-1.78,0-3.02,1.59-3.02,3.34v5h-1.57v-9.66H325.08z"/>
	<path class="st0" d="M335.69,326.49h-1.93v8.12h-1.57v-8.12h-1.93v-1.54h1.93v-2.94h1.57v2.94h1.93V326.49z"/>
	<path class="st0" d="M336.48,329.78c0-2.89,1.84-5.07,4.3-5.07c1.58,0,2.64,0.84,3.08,1.67v-1.44h1.57v9.66h-1.57v-1.44
		c-0.44,0.83-1.5,1.67-3.08,1.67C338.32,334.85,336.48,332.67,336.48,329.78z M343.9,329.78c0-2.01-1.22-3.53-2.98-3.53
		c-1.75,0-2.9,1.52-2.9,3.53c0,2.01,1.16,3.53,2.9,3.53C342.68,333.31,343.9,331.79,343.9,329.78z"/>
	<path class="st0" d="M347.82,334.61v-13.95h1.57v13.95H347.82z"/>
	<path class="st0" d="M365.31,324.82h-1.64c-0.17-1.44-1.34-2.53-3.24-2.53c-1.92,0-2.99,0.88-2.99,2.09c0,1.4,1.12,2.01,3.72,2.62
		c2.99,0.71,4.19,1.99,4.19,4c0,2.43-2.14,3.92-4.85,3.92c-2.84,0-4.89-1.72-5.06-4.34h1.64c0.17,1.64,1.49,2.8,3.53,2.8
		c1.82,0,3.12-0.93,3.12-2.28c0-1.5-1.11-2.11-3.75-2.74c-2.75-0.64-4.15-1.74-4.15-3.99s1.99-3.61,4.68-3.61
		C363.18,320.76,365.16,322.45,365.31,324.82z"/>
	<path class="st0" d="M366.76,329.78c0-2.91,1.82-5.07,4.36-5.07c2.54,0,4.35,2.16,4.35,5.07c0,0.22,0,0.47-0.03,0.71h-7.11
		c0.17,1.66,1.25,2.89,2.8,2.89c1.19,0,2.11-0.61,2.43-1.4h1.6c-0.47,1.67-2.04,2.87-4.03,2.87
		C368.59,334.85,366.76,332.69,366.76,329.78z M371.13,326.19c-1.57,0-2.63,1.22-2.8,2.89h5.61
		C373.76,327.38,372.69,326.19,371.13,326.19z"/>
	<path class="st0" d="M378.95,324.95v1.49c0.38-0.73,1.43-1.72,3.13-1.72c0.53,0,0.88,0.05,1.19,0.17v1.66
		c-0.33-0.17-0.76-0.27-1.29-0.27c-1.78,0-3.02,1.59-3.02,3.34v5h-1.57v-9.66H378.95z"/>
	<path class="st0" d="M393.02,324.95l-3.68,9.66h-1.66l-3.66-9.66h1.7l2.84,7.69l2.84-7.69H393.02z"/>
	<path class="st0" d="M396.37,321.64c0,0.66-0.44,1.15-1.05,1.15c-0.59,0-1.03-0.49-1.03-1.15s0.44-1.15,1.03-1.15
		C395.93,320.49,396.37,320.98,396.37,321.64z M394.54,334.63v-9.68h1.57v9.68H394.54z"/>
	<path class="st0" d="M402.51,334.85c-2.58,0-4.47-2.16-4.47-5.07c0-2.91,1.87-5.07,4.44-5.07c2.05,0,3.66,1.47,4.09,3.48h-1.6
		c-0.35-1.15-1.26-1.94-2.49-1.94c-1.73,0-2.9,1.52-2.9,3.53c0,2.01,1.17,3.53,2.9,3.53c1.23,0,2.17-0.81,2.52-1.98h1.6
		C406.12,333.43,404.53,334.85,402.51,334.85z"/>
	<path class="st0" d="M407.98,329.78c0-2.91,1.82-5.07,4.36-5.07s4.35,2.16,4.35,5.07c0,0.22,0,0.47-0.03,0.71h-7.11
		c0.17,1.66,1.25,2.89,2.8,2.89c1.19,0,2.11-0.61,2.43-1.4h1.6c-0.47,1.67-2.04,2.87-4.03,2.87
		C409.8,334.85,407.98,332.69,407.98,329.78z M412.34,326.19c-1.57,0-2.63,1.22-2.8,2.89h5.61
		C414.97,327.38,413.9,326.19,412.34,326.19z"/>
</g>
<g>
	<g>
		<linearGradient id="SVGID_1_" gradientUnits="userSpaceOnUse" x1="251.8769" y1="91.897" x2="315.4741" y2="91.897">
			<stop  offset="0" style="stop-color:#244198"/>
			<stop  offset="0.999" style="stop-color:#ED80AC"/>
		</linearGradient>
		<polygon class="st1" points="287.9,137.49 251.88,137.49 272.27,69.82 315.47,46.31 		"/>
	</g>
	<g>
		
			<linearGradient id="SVGID_00000072973883551759531410000012886811089301088649_" gradientUnits="userSpaceOnUse" x1="104.2418" y1="130.7813" x2="181.1422" y2="130.7813">
			<stop  offset="0" style="stop-color:#C49FC9"/>
			<stop  offset="0.9971" style="stop-color:#984F9B"/>
		</linearGradient>
		<polygon style="fill:url(#SVGID_00000072973883551759531410000012886811089301088649_);" points="145.08,220.87 104.24,85.38 
			126.75,40.54 181.14,221.02 		"/>
	</g>
	<g>
		
			<linearGradient id="SVGID_00000083084924842117534420000011459025293909660847_" gradientUnits="userSpaceOnUse" x1="211.0417" y1="69.8194" x2="287.9421" y2="69.8194">
			<stop  offset="0" style="stop-color:#C49FC9"/>
			<stop  offset="0.9971" style="stop-color:#984F9B"/>
		</linearGradient>
		<polygon style="fill:url(#SVGID_00000083084924842117534420000011459025293909660847_);" points="251.88,137.49 211.04,2 
			247.18,2.39 287.94,137.64 		"/>
	</g>
	<g>
		
			<linearGradient id="SVGID_00000045607893637669392690000004553289974334216583_" gradientUnits="userSpaceOnUse" x1="145.077" y1="111.4328" x2="247.1772" y2="111.4328">
			<stop  offset="0" style="stop-color:#4C96D2"/>
			<stop  offset="0.999" style="stop-color:#834396"/>
		</linearGradient>
		<polygon style="fill:url(#SVGID_00000045607893637669392690000004553289974334216583_);" points="181.1,220.87 145.08,220.87 
			211.04,2 247.18,2.39 		"/>
	</g>
</g>
</svg>
